<svg width="19" height="10" viewBox="0 0 19 10" fill="none" xmlns="http://www.w3.org/2000/svg">
<path d="M18.361 1.33021L10.1789 9.12438C9.85885 9.42929 9.34168 9.42929 9.02159 9.12438L0.839502 1.33021C0.68078 1.17901 0.600098 0.97868 0.600098 0.779605C0.600098 0.58053 0.68078 0.381455 0.839502 0.227739C1.15959 -0.0759139 1.67808 -0.0759138 1.99685 0.227739L8.77425 6.68382C8.77425 6.68382 9.23125 7.25307 9.6 7.25307C9.96875 7.25307 10.4117 6.69894 10.4117 6.69894L17.2037 0.227739C17.5224 -0.0759131 18.0409 -0.0759131 18.361 0.227739C18.6798 0.532652 18.6798 1.02656 18.361 1.33021Z" fill="#878C96"/>
</svg>
