<svg width="27" height="20" viewBox="0 0 27 20" fill="none" xmlns="http://www.w3.org/2000/svg">
<path fill-rule="evenodd" clip-rule="evenodd" d="M0.473349 2H11.5267C11.7886 2 12 1.55129 12 0.999166C12 0.447039 11.7886 0 11.5267 0H0.473349C0.211429 0 0 0.447039 0 0.999166C0 1.55129 0.211429 2 0.473349 2ZM0.670578 8H16.3294C16.7005 8 17 7.55129 17 6.99917C17 6.44704 16.7005 6 16.3294 6H0.670578C0.299525 6 0 6.44704 0 6.99917C0 7.55129 0.299525 8 0.670578 8ZM0.867807 14H21.1322C21.6124 14 22 13.5513 22 12.9992C22 12.447 21.6124 12 21.1322 12H0.867807C0.387621 12 0 12.447 0 12.9992C0 13.5513 0.387621 14 0.867807 14ZM1.06504 20H25.935C26.5243 20 27 19.5513 27 18.9992C27 18.447 26.5243 18 25.935 18H1.06504C0.475716 18 0 18.447 0 18.9992C0 19.5513 0.475716 20 1.06504 20Z" fill="#878C96"/>
</svg>
