<svg width="19" height="20" viewBox="0 0 19 20" fill="none" xmlns="http://www.w3.org/2000/svg">
<path fill-rule="evenodd" clip-rule="evenodd" d="M17.8667 18.2585C17.8667 18.484 17.7109 18.6774 17.5041 18.7085C15.621 18.9906 13.7077 18.8953 11.8454 18.4264C6.50301 17.0698 2.39495 12.6925 1.3788 7.26981C1.21353 6.4283 1.13326 5.56981 1.13326 4.64528C1.13326 3.55755 1.25319 2.48585 1.49023 1.46038C1.53462 1.26981 1.72066 1.13208 1.93409 1.13208H5.16104C5.97415 1.13208 6.63616 1.79245 6.63616 2.60566V4.2717L4.7219 5.09057C4.04667 5.37925 3.65003 6.09811 3.77941 6.8C4.57458 11.1377 7.82892 14.734 12.0711 15.9613C12.8502 16.1877 13.6803 15.8019 13.9967 15.066L14.7238 13.3708H16.3916C17.2047 13.3708 17.8667 14.0321 17.8667 14.8443V18.2585ZM16.3916 12.2387H14.3499C14.1232 12.2387 13.9183 12.3736 13.8286 12.5811L12.955 14.6208C12.8644 14.833 12.6207 14.9415 12.3865 14.8745C8.55326 13.7651 5.61246 10.5151 4.89378 6.59528C4.85978 6.40849 4.975 6.21321 5.1686 6.13113L7.42567 5.16604C7.63438 5.07642 7.76942 4.8717 7.76942 4.64528V2.60566C7.76942 1.16887 6.59933 0 5.16104 0H1.93409C1.19842 0 0.547741 0.507547 0.386252 1.2066C0.130325 2.31415 0 3.4717 0 4.64528C0 5.64434 0.0868831 6.57359 0.265371 7.48302C1.3618 13.3321 5.79755 18.0585 11.5668 19.5236C12.8209 19.8396 14.1006 20 15.3707 20C16.1347 20 16.9082 19.9415 17.6713 19.8274C18.4286 19.7142 19 19.0406 19 18.2585V14.8443C19 13.4075 17.8299 12.2387 16.3916 12.2387Z" fill="white"/>
</svg>
