<svg width="273" height="397" viewBox="0 0 273 397" fill="none" xmlns="http://www.w3.org/2000/svg">
<path fill-rule="evenodd" clip-rule="evenodd" d="M18.3157 193.608C22.5872 193.691 26.2295 196.274 27.6368 200.115C32.0076 211.919 36.8268 223.126 45.4691 233.904C49.6578 239.152 54.7405 237.314 56.7438 236.238C60.3531 234.334 63.9126 229.88 62.0087 223.622C56.1643 204.351 56.7438 183.766 56.7438 164.138C56.7438 97.1681 117.463 18.8567 167.744 1.092C171.121 -0.0834827 174.896 0.62843 177.595 2.9794C180.294 5.34692 181.519 8.98927 180.774 12.4992C173.528 47.1596 157.411 113.799 167.744 152.599C168.862 156.797 171.742 164.733 176.591 163.239C181.439 161.745 180.048 156.42 180.774 152.599C185.467 127.887 199.697 106.473 222.301 94.1391C233.691 87.9471 240.926 91.606 244.221 94.3874C252.151 101.026 249.734 111.49 248.939 114.95C245.496 129.801 242.648 145.629 245.165 160.711C247.019 171.804 251.721 182.4 256.704 193.608C259.916 200.86 263.128 208.128 265.661 215.628C278.227 252.813 273.128 294.485 251.638 329.948C230.148 365.444 195.562 389.301 156.755 395.411C150.033 396.47 143.262 397 136.49 397C100.232 396.983 64.1566 382.182 38.8092 356.09C2.33609 318.524 -10.4257 247.697 9.12704 199.8C10.6502 196.058 14.2925 193.608 18.3157 193.608Z" fill="#FA783C"/>
</svg>
