<svg width="150" height="22" viewBox="0 0 150 22" fill="none" xmlns="http://www.w3.org/2000/svg">
<path fill-rule="evenodd" clip-rule="evenodd" d="M10.2439 5.21C9.25474 4.36333 7.85231 3.94 6.03659 3.94H0V17.94H3.21138V13.94H6.03659C7.83876 13.94 9.2378 13.49 10.2337 12.59C11.2297 11.69 11.7276 10.4267 11.7276 8.8C11.7276 7.25333 11.2331 6.05667 10.2439 5.21ZM7.95732 10.69C7.47628 11.0967 6.78185 11.3 5.87398 11.3H3.21138V6.56H5.87398C6.78185 6.56 7.47628 6.75667 7.95732 7.15C8.43835 7.54334 8.67886 8.12667 8.67886 8.9C8.67886 9.68667 8.43835 10.2833 7.95732 10.69Z" fill="#3C465A"/>
<path fill-rule="evenodd" clip-rule="evenodd" d="M22.4289 8.58C21.5142 7.58 20.1762 7.08 18.4146 7.08C17.3171 7.08 16.3415 7.31 15.4878 7.77C14.6341 8.23 13.9702 8.87666 13.4959 9.71C13.0217 10.5433 12.7846 11.5067 12.7846 12.6C12.7846 13.68 13.0183 14.6333 13.4858 15.46C13.9533 16.2867 14.6172 16.9267 15.4776 17.38C16.3381 17.8333 17.3442 18.06 18.4959 18.06C19.4715 18.06 20.3557 17.8967 21.1484 17.57C21.9411 17.2433 22.6152 16.7733 23.1707 16.16L21.5244 14.52C21.145 14.8933 20.7182 15.1767 20.2439 15.37C19.7696 15.5633 19.2751 15.66 18.7602 15.66C18.0556 15.66 17.4526 15.47 16.9512 15.09C16.4499 14.71 16.1111 14.18 15.935 13.5H23.7805C23.794 13.3267 23.8008 13.08 23.8008 12.76C23.8008 10.9733 23.3435 9.58001 22.4289 8.58ZM20.1626 9.98C20.5962 10.4067 20.8266 10.9733 20.8537 11.68H15.874C15.9959 10.96 16.2839 10.39 16.7378 9.97C17.1917 9.55 17.7574 9.34 18.435 9.34C19.1531 9.34 19.729 9.55333 20.1626 9.98Z" fill="#3C465A"/>
<path fill-rule="evenodd" clip-rule="evenodd" d="M23.7398 19.28C24.0515 19.3733 24.3428 19.4267 24.6138 19.44C25.0339 19.4533 25.3523 19.3267 25.5691 19.06C25.7859 18.7933 25.8943 18.4067 25.8943 17.9V7.18H29.0041V18.38C29.0041 19.4867 28.6789 20.3567 28.0285 20.99C27.378 21.6233 26.4837 21.94 25.3455 21.94C24.5054 21.94 23.7534 21.8 23.0894 21.52L23.7398 19.28Z" fill="#3C465A"/>
<path fill-rule="evenodd" clip-rule="evenodd" d="M28.0368 1.47458C28.0368 1.47458 27.9417 2.7385 27.3844 3.13347C27.3844 3.13347 27.6467 0.737288 26.8952 0C26.8952 0 26.7287 1.94987 26.261 2.62896C25.916 3.12993 25.6098 3.48023 25.6098 4.27119C25.6098 5.29626 26.3772 6 27.439 6C28.5008 6 29.2683 5.29626 29.2683 4.27119C29.2683 2.45328 28.0368 1.47458 28.0368 1.47458Z" fill="#FA783C"/>
<path fill-rule="evenodd" clip-rule="evenodd" d="M38.8008 10.34C38.2046 10.0067 37.6152 9.75 37.0325 9.57C36.4499 9.39 35.9282 9.3 35.4675 9.3C35.0881 9.3 34.7832 9.36667 34.5528 9.5C34.3225 9.63333 34.2073 9.83333 34.2073 10.1C34.2073 10.3933 34.3631 10.62 34.6748 10.78C34.9864 10.94 35.4946 11.12 36.1992 11.32C36.9715 11.5467 37.6084 11.77 38.1098 11.99C38.6111 12.21 39.0447 12.5367 39.4106 12.97C39.7764 13.4033 39.9593 13.9733 39.9593 14.68C39.9593 15.7467 39.5427 16.5767 38.7093 17.17C37.876 17.7633 36.8089 18.06 35.5081 18.06C34.6138 18.06 33.7534 17.93 32.9268 17.67C32.1003 17.41 31.3821 17.04 30.7724 16.56L31.7886 14.48C32.3442 14.9067 32.9641 15.2367 33.6484 15.47C34.3327 15.7033 34.9797 15.82 35.5894 15.82C36.0095 15.82 36.3448 15.75 36.5955 15.61C36.8462 15.47 36.9715 15.26 36.9715 14.98C36.9715 14.6733 36.8123 14.4333 36.4939 14.26C36.1755 14.0867 35.664 13.9 34.9593 13.7C34.2141 13.4867 33.5942 13.2733 33.0996 13.06C32.605 12.8467 32.1816 12.5233 31.8293 12.09C31.477 11.6567 31.3008 11.0933 31.3008 10.4C31.3008 9.33333 31.7073 8.50667 32.5203 7.92C33.3333 7.33333 34.3631 7.04 35.6098 7.04C36.355 7.04 37.1003 7.14333 37.8455 7.35C38.5908 7.55667 39.2683 7.85333 39.878 8.24L38.8008 10.34Z" fill="#3C465A"/>
<path fill-rule="evenodd" clip-rule="evenodd" d="M50.7622 8.58C49.8476 7.58 48.5095 7.08 46.748 7.08C45.6504 7.08 44.6748 7.31 43.8211 7.77C42.9675 8.23 42.3035 8.87666 41.8293 9.71C41.355 10.5433 41.1179 11.5067 41.1179 12.6C41.1179 13.68 41.3516 14.6333 41.8191 15.46C42.2866 16.2867 42.9505 16.9267 43.811 17.38C44.6714 17.8333 45.6775 18.06 46.8293 18.06C47.8049 18.06 48.689 17.8967 49.4817 17.57C50.2744 17.2433 50.9485 16.7733 51.5041 16.16L49.8577 14.52C49.4783 14.8933 49.0515 15.1767 48.5772 15.37C48.103 15.5633 47.6084 15.66 47.0935 15.66C46.3889 15.66 45.7859 15.47 45.2846 15.09C44.7832 14.71 44.4444 14.18 44.2683 13.5H52.1138C52.1274 13.3267 52.1341 13.08 52.1341 12.76C52.1341 10.9733 51.6768 9.58001 50.7622 8.58ZM48.4959 9.98C48.9295 10.4067 49.1599 10.9733 49.187 11.68H44.2073C44.3293 10.96 44.6172 10.39 45.0711 9.97C45.5251 9.55 46.0908 9.34 46.7683 9.34C47.4865 9.34 48.0623 9.55333 48.4959 9.98Z" fill="#3C465A"/>
<path fill-rule="evenodd" clip-rule="evenodd" d="M68.6585 7.06C69.8645 7.06 70.8232 7.42999 71.5346 8.17C72.2459 8.91 72.6016 9.91332 72.6016 11.18V17.94H69.4919V12.08C69.4919 11.3867 69.3022 10.8467 68.9228 10.46C68.5434 10.0733 68.0285 9.88 67.378 9.88C66.6328 9.89333 66.0434 10.1533 65.6098 10.66C65.1762 11.1667 64.9594 11.82 64.9594 12.62V17.94H61.8496V12.08C61.8496 11.4 61.6633 10.8633 61.2907 10.47C60.918 10.0767 60.4065 9.88 59.7561 9.88C59.0108 9.89333 58.418 10.1533 57.9776 10.66C57.5373 11.1667 57.3171 11.82 57.3171 12.62V17.94H54.187V7.18H57.3171V9.04C58.0759 7.74666 59.3089 7.08666 61.0163 7.06C61.9377 7.06 62.7168 7.27666 63.3537 7.71C63.9905 8.14333 64.4444 8.75333 64.7154 9.54C65.0678 8.72666 65.5793 8.11333 66.25 7.7C66.9207 7.28666 67.7236 7.07333 68.6585 7.06Z" fill="#3C465A"/>
<path fill-rule="evenodd" clip-rule="evenodd" d="M84.0142 8.58C83.0996 7.58 81.7615 7.08 80 7.08C78.9024 7.08 77.9268 7.31 77.0732 7.77C76.2195 8.23 75.5556 8.87666 75.0813 9.71C74.607 10.5433 74.3699 11.5067 74.3699 12.6C74.3699 13.68 74.6037 14.6333 75.0711 15.46C75.5386 16.2867 76.2026 16.9267 77.063 17.38C77.9234 17.8333 78.9295 18.06 80.0813 18.06C81.0569 18.06 81.9411 17.8967 82.7337 17.57C83.5264 17.2433 84.2005 16.7733 84.7561 16.16L83.1098 14.52C82.7304 14.8933 82.3035 15.1767 81.8293 15.37C81.355 15.5633 80.8604 15.66 80.3455 15.66C79.6409 15.66 79.0379 15.47 78.5366 15.09C78.0352 14.71 77.6965 14.18 77.5203 13.5H85.3659C85.3794 13.3267 85.3862 13.08 85.3862 12.76C85.3862 10.9733 84.9289 9.58001 84.0142 8.58ZM81.748 9.98C82.1816 10.4067 82.4119 10.9733 82.439 11.68H77.4593C77.5813 10.96 77.8692 10.39 78.3232 9.97C78.7771 9.55 79.3428 9.34 80.0203 9.34C80.7385 9.34 81.3144 9.55333 81.748 9.98Z" fill="#3C465A"/>
<path fill-rule="evenodd" clip-rule="evenodd" d="M94.3293 10.34C93.7331 10.0067 93.1436 9.75 92.561 9.57C91.9783 9.39 91.4566 9.3 90.9959 9.3C90.6165 9.3 90.3117 9.36667 90.0813 9.5C89.8509 9.63333 89.7358 9.83333 89.7358 10.1C89.7358 10.3933 89.8916 10.62 90.2033 10.78C90.5149 10.94 91.023 11.12 91.7276 11.32C92.5 11.5467 93.1369 11.77 93.6382 11.99C94.1396 12.21 94.5732 12.5367 94.939 12.97C95.3049 13.4033 95.4878 13.9733 95.4878 14.68C95.4878 15.7467 95.0711 16.5767 94.2378 17.17C93.4045 17.7633 92.3374 18.06 91.0366 18.06C90.1423 18.06 89.2818 17.93 88.4553 17.67C87.6287 17.41 86.9106 17.04 86.3008 16.56L87.3171 14.48C87.8726 14.9067 88.4925 15.2367 89.1768 15.47C89.8611 15.7033 90.5081 15.82 91.1179 15.82C91.5379 15.82 91.8733 15.75 92.124 15.61C92.3747 15.47 92.5 15.26 92.5 14.98C92.5 14.6733 92.3408 14.4333 92.0224 14.26C91.7039 14.0867 91.1924 13.9 90.4878 13.7C89.7425 13.4867 89.1226 13.2733 88.628 13.06C88.1335 12.8467 87.71 12.5233 87.3577 12.09C87.0054 11.6567 86.8293 11.0933 86.8293 10.4C86.8293 9.33333 87.2358 8.50667 88.0488 7.92C88.8618 7.33333 89.8916 7.04 91.1382 7.04C91.8835 7.04 92.6287 7.14333 93.374 7.35C94.1192 7.55667 94.7967 7.85333 95.4065 8.24L94.3293 10.34Z" fill="#3C465A"/>
<path fill-rule="evenodd" clip-rule="evenodd" d="M104.35 17.34C103.943 17.58 103.493 17.7633 102.998 17.89C102.503 18.0167 102.005 18.08 101.504 18.08C100.488 18.08 99.6613 17.7933 99.0244 17.22C98.3875 16.6467 98.0691 15.8267 98.0691 14.76V9.78H96.5447V7.66H98.0691V4.7H101.179V7.66H104.146V9.8H101.179V14.24C101.179 15.0667 101.511 15.48 102.175 15.48C102.636 15.48 103.144 15.3467 103.699 15.08L104.35 17.34Z" fill="#3C465A"/>
<path fill-rule="evenodd" clip-rule="evenodd" d="M114.949 8.58C114.035 7.58 112.696 7.08 110.935 7.08C109.837 7.08 108.862 7.31 108.008 7.77C107.154 8.23 106.491 8.87666 106.016 9.71C105.542 10.5433 105.305 11.5067 105.305 12.6C105.305 13.68 105.539 14.6333 106.006 15.46C106.474 16.2867 107.138 16.9267 107.998 17.38C108.858 17.8333 109.864 18.06 111.016 18.06C111.992 18.06 112.876 17.8967 113.669 17.57C114.461 17.2433 115.135 16.7733 115.691 16.16L114.045 14.52C113.665 14.8933 113.238 15.1767 112.764 15.37C112.29 15.5633 111.795 15.66 111.28 15.66C110.576 15.66 109.973 15.47 109.472 15.09C108.97 14.71 108.631 14.18 108.455 13.5H116.301C116.314 13.3267 116.321 13.08 116.321 12.76C116.321 10.9733 115.864 9.58001 114.949 8.58ZM112.683 9.98C113.117 10.4067 113.347 10.9733 113.374 11.68H108.394C108.516 10.96 108.804 10.39 109.258 9.97C109.712 9.55 110.278 9.34 110.955 9.34C111.673 9.34 112.249 9.55333 112.683 9.98Z" fill="#3C465A"/>
<path fill-rule="evenodd" clip-rule="evenodd" d="M121.504 9.12C121.883 8.45333 122.378 7.94667 122.988 7.6C123.598 7.25333 124.309 7.07333 125.122 7.06V9.96C125.014 9.94666 124.851 9.94 124.634 9.94C123.672 9.94 122.91 10.1967 122.348 10.71C121.785 11.2233 121.504 11.9067 121.504 12.76V17.94H118.374V7.18H121.504V9.12Z" fill="#3C465A"/>
<path fill-rule="evenodd" clip-rule="evenodd" d="M135.539 8.58C134.624 7.58 133.286 7.08 131.524 7.08C130.427 7.08 129.451 7.31 128.598 7.77C127.744 8.23 127.08 8.87666 126.606 9.71C126.131 10.5433 125.894 11.5067 125.894 12.6C125.894 13.68 126.128 14.6333 126.596 15.46C127.063 16.2867 127.727 16.9267 128.587 17.38C129.448 17.8333 130.454 18.06 131.606 18.06C132.581 18.06 133.465 17.8967 134.258 17.57C135.051 17.2433 135.725 16.7733 136.28 16.16L134.634 14.52C134.255 14.8933 133.828 15.1767 133.354 15.37C132.879 15.5633 132.385 15.66 131.87 15.66C131.165 15.66 130.562 15.47 130.061 15.09C129.56 14.71 129.221 14.18 129.045 13.5H136.89C136.904 13.3267 136.911 13.08 136.911 12.76C136.911 10.9733 136.453 9.58001 135.539 8.58ZM133.272 9.98C133.706 10.4067 133.936 10.9733 133.963 11.68H128.984C129.106 10.96 129.394 10.39 129.848 9.97C130.301 9.55 130.867 9.34 131.545 9.34C132.263 9.34 132.839 9.55333 133.272 9.98Z" fill="#3C465A"/>
<path fill-rule="evenodd" clip-rule="evenodd" d="M145.874 7.06C147.093 7.06 148.066 7.43333 148.791 8.18C149.516 8.92667 149.878 9.92666 149.878 11.18V17.94H146.748V12.08C146.748 11.4 146.555 10.8633 146.169 10.47C145.783 10.0767 145.257 9.88 144.593 9.88C143.821 9.89333 143.211 10.1567 142.764 10.67C142.317 11.1833 142.093 11.84 142.093 12.64V17.94H138.963V7.18H142.093V9.06C142.852 7.75332 144.112 7.08666 145.874 7.06Z" fill="#3C465A"/>
</svg>
