<?xml version="1.0" encoding="UTF-8"?>
<svg xmlns="http://www.w3.org/2000/svg" xmlns:xlink="http://www.w3.org/1999/xlink" width="167pt" height="20pt" viewBox="0 0 167 20" version="1.1">
<g id="surface1">
<path style=" stroke:none;fill-rule:evenodd;fill:rgb(23.529412%,27.45098%,35.294118%);fill-opacity:1;" d="M 5.476562 3.75 C 7.128906 3.75 8.402344 4.140625 9.296875 4.921875 C 10.195312 5.703125 10.644531 6.808594 10.644531 8.238281 C 10.644531 9.742188 10.191406 10.910156 9.289062 11.742188 C 8.382812 12.574219 7.113281 12.988281 5.476562 12.988281 L 2.914062 12.988281 L 2.914062 16.683594 L 0 16.683594 L 0 3.75 Z M 5.332031 10.550781 C 6.15625 10.550781 6.785156 10.363281 7.222656 9.984375 C 7.660156 9.609375 7.878906 9.058594 7.878906 8.332031 C 7.878906 7.617188 7.660156 7.078125 7.222656 6.714844 C 6.785156 6.351562 6.15625 6.167969 5.332031 6.167969 L 2.914062 6.167969 L 2.914062 10.550781 Z M 5.332031 10.550781 "/>
<path style=" stroke:none;fill-rule:evenodd;fill:rgb(23.529412%,27.45098%,35.294118%);fill-opacity:1;" d="M 16.917969 6.5625 C 18.53125 6.5625 19.753906 7.011719 20.59375 7.917969 C 21.429688 8.824219 21.847656 10.082031 21.847656 11.699219 C 21.847656 11.992188 21.839844 12.214844 21.828125 12.371094 L 14.648438 12.371094 C 14.808594 12.984375 15.121094 13.464844 15.578125 13.808594 C 16.039062 14.152344 16.589844 14.324219 17.234375 14.324219 C 17.703125 14.324219 18.160156 14.238281 18.59375 14.0625 C 19.027344 13.886719 19.417969 13.632812 19.765625 13.292969 L 21.269531 14.777344 C 20.761719 15.332031 20.144531 15.757812 19.421875 16.054688 C 18.695312 16.347656 17.886719 16.496094 16.992188 16.496094 C 15.9375 16.496094 15.015625 16.292969 14.230469 15.882812 C 13.441406 15.46875 12.832031 14.890625 12.40625 14.144531 C 11.976562 13.394531 11.765625 12.535156 11.765625 11.558594 C 11.765625 10.566406 11.980469 9.695312 12.414062 8.941406 C 12.847656 8.1875 13.457031 7.601562 14.238281 7.1875 C 15.019531 6.769531 15.914062 6.5625 16.917969 6.5625 Z M 19.152344 10.722656 C 19.125 10.082031 18.914062 9.570312 18.515625 9.183594 C 18.121094 8.800781 17.59375 8.605469 16.9375 8.605469 C 16.316406 8.605469 15.796875 8.796875 15.382812 9.175781 C 14.96875 9.554688 14.703125 10.074219 14.59375 10.722656 Z M 19.152344 10.722656 "/>
<path style=" stroke:none;fill-rule:evenodd;fill:rgb(23.529412%,27.45098%,35.294118%);fill-opacity:1;" d="M 21.882812 17.625 C 22.167969 17.710938 22.433594 17.757812 22.683594 17.773438 C 23.070312 17.785156 23.359375 17.667969 23.558594 17.425781 C 23.757812 17.179688 23.855469 16.828125 23.855469 16.363281 L 23.855469 6.5625 L 26.703125 6.5625 L 26.703125 16.800781 C 26.703125 17.8125 26.40625 18.609375 25.808594 19.191406 C 25.214844 19.769531 24.394531 20.058594 23.355469 20.058594 C 22.585938 20.058594 21.894531 19.929688 21.289062 19.675781 Z M 21.882812 17.625 "/>
<path style=" stroke:none;fill-rule:evenodd;fill:rgb(98.039216%,47.058824%,23.529412%);fill-opacity:1;" d="M 23.601562 2.738281 C 23.660156 2.738281 23.710938 2.777344 23.730469 2.832031 C 23.796875 3 23.863281 3.160156 23.984375 3.308594 C 24.042969 3.382812 24.117188 3.359375 24.144531 3.34375 C 24.195312 3.316406 24.246094 3.253906 24.21875 3.164062 C 24.136719 2.890625 24.144531 2.597656 24.144531 2.320312 C 24.144531 1.371094 25 0.257812 25.710938 0.0078125 C 25.761719 -0.0117188 25.8125 0 25.851562 0.0351562 C 25.890625 0.0664062 25.90625 0.121094 25.894531 0.167969 C 25.792969 0.660156 25.566406 1.605469 25.710938 2.160156 C 25.726562 2.214844 25.769531 2.328125 25.835938 2.308594 C 25.90625 2.285156 25.886719 2.210938 25.894531 2.160156 C 25.964844 1.808594 26.164062 1.503906 26.484375 1.328125 C 26.644531 1.238281 26.746094 1.292969 26.792969 1.332031 C 26.90625 1.425781 26.871094 1.574219 26.859375 1.621094 C 26.808594 1.835938 26.769531 2.058594 26.804688 2.273438 C 26.832031 2.429688 26.898438 2.578125 26.96875 2.738281 C 27.015625 2.839844 27.058594 2.945312 27.09375 3.050781 C 27.273438 3.578125 27.203125 4.167969 26.898438 4.671875 C 26.59375 5.175781 26.105469 5.515625 25.554688 5.601562 C 25.460938 5.617188 25.367188 5.625 25.269531 5.625 C 24.757812 5.625 24.25 5.414062 23.890625 5.042969 C 23.375 4.511719 23.195312 3.503906 23.472656 2.828125 C 23.492188 2.773438 23.542969 2.738281 23.601562 2.738281 Z M 23.601562 2.738281 "/>
<path style=" stroke:none;fill-rule:evenodd;fill:rgb(23.529412%,27.45098%,35.294118%);fill-opacity:1;" d="M 35.726562 9.648438 C 35.183594 9.335938 34.644531 9.097656 34.109375 8.925781 C 33.578125 8.761719 33.101562 8.675781 32.679688 8.675781 C 32.332031 8.675781 32.054688 8.738281 31.839844 8.863281 C 31.628906 8.988281 31.527344 9.175781 31.527344 9.425781 C 31.527344 9.699219 31.667969 9.910156 31.953125 10.058594 C 32.238281 10.210938 32.703125 10.378906 33.347656 10.566406 C 34.054688 10.777344 34.636719 10.988281 35.09375 11.191406 C 35.554688 11.398438 35.953125 11.703125 36.285156 12.109375 C 36.621094 12.515625 36.789062 13.046875 36.789062 13.710938 C 36.789062 14.707031 36.40625 15.484375 35.644531 16.039062 C 34.882812 16.59375 33.90625 16.871094 32.714844 16.871094 C 31.898438 16.871094 31.109375 16.75 30.355469 16.507812 C 29.597656 16.261719 28.941406 15.917969 28.382812 15.46875 L 29.3125 13.523438 C 29.820312 13.921875 30.386719 14.230469 31.015625 14.449219 C 31.640625 14.667969 32.234375 14.777344 32.789062 14.777344 C 33.171875 14.777344 33.480469 14.710938 33.710938 14.578125 C 33.9375 14.449219 34.054688 14.253906 34.054688 13.988281 C 34.054688 13.703125 33.910156 13.476562 33.617188 13.316406 C 33.324219 13.152344 32.859375 12.980469 32.214844 12.792969 C 31.53125 12.59375 30.964844 12.394531 30.511719 12.191406 C 30.0625 11.992188 29.675781 11.691406 29.351562 11.285156 C 29.027344 10.878906 28.867188 10.355469 28.867188 9.703125 C 28.867188 8.707031 29.238281 7.933594 29.984375 7.382812 C 30.726562 6.835938 31.667969 6.5625 32.808594 6.5625 C 33.488281 6.5625 34.171875 6.65625 34.851562 6.851562 C 35.535156 7.046875 36.15625 7.320312 36.710938 7.683594 Z M 35.726562 9.648438 "/>
<path style=" stroke:none;fill-rule:evenodd;fill:rgb(23.529412%,27.45098%,35.294118%);fill-opacity:1;" d="M 42.875 6.5625 C 44.488281 6.5625 45.710938 7.011719 46.550781 7.917969 C 47.386719 8.824219 47.804688 10.082031 47.804688 11.699219 C 47.804688 11.992188 47.796875 12.214844 47.785156 12.371094 L 40.605469 12.371094 C 40.765625 12.984375 41.078125 13.464844 41.535156 13.808594 C 41.992188 14.152344 42.546875 14.324219 43.191406 14.324219 C 43.660156 14.324219 44.113281 14.238281 44.546875 14.0625 C 44.984375 13.886719 45.375 13.632812 45.722656 13.292969 L 47.226562 14.777344 C 46.71875 15.332031 46.101562 15.757812 45.378906 16.054688 C 44.652344 16.347656 43.839844 16.496094 42.949219 16.496094 C 41.894531 16.496094 40.972656 16.292969 40.1875 15.882812 C 39.398438 15.46875 38.792969 14.890625 38.363281 14.144531 C 37.933594 13.394531 37.71875 12.535156 37.71875 11.558594 C 37.71875 10.566406 37.9375 9.695312 38.371094 8.941406 C 38.808594 8.1875 39.414062 7.601562 40.195312 7.1875 C 40.976562 6.769531 41.871094 6.5625 42.875 6.5625 Z M 45.105469 10.722656 C 45.082031 10.082031 44.871094 9.570312 44.472656 9.183594 C 44.078125 8.800781 43.550781 8.605469 42.894531 8.605469 C 42.273438 8.605469 41.753906 8.796875 41.339844 9.175781 C 40.921875 9.554688 40.660156 10.074219 40.550781 10.722656 Z M 45.105469 10.722656 "/>
<path style=" stroke:none;fill-rule:evenodd;fill:rgb(23.529412%,27.45098%,35.294118%);fill-opacity:1;" d="M 63.066406 6.5625 C 64.167969 6.5625 65.039062 6.898438 65.691406 7.574219 C 66.339844 8.25 66.664062 9.167969 66.664062 10.324219 L 66.664062 16.496094 L 63.824219 16.496094 L 63.824219 11.144531 C 63.824219 10.511719 63.652344 10.019531 63.308594 9.664062 C 62.960938 9.3125 62.492188 9.136719 61.898438 9.136719 C 61.21875 9.148438 60.679688 9.386719 60.285156 9.847656 C 59.886719 10.3125 59.6875 10.910156 59.6875 11.636719 L 59.6875 16.496094 L 56.851562 16.496094 L 56.851562 11.144531 C 56.851562 10.523438 56.683594 10.035156 56.339844 9.675781 C 56 9.316406 55.535156 9.136719 54.941406 9.136719 C 54.261719 9.148438 53.71875 9.386719 53.320312 9.847656 C 52.914062 10.3125 52.714844 10.910156 52.714844 11.636719 L 52.714844 16.496094 L 49.859375 16.496094 L 49.859375 6.667969 L 52.714844 6.667969 L 52.714844 8.371094 C 53.40625 7.1875 54.535156 6.585938 56.09375 6.5625 C 56.933594 6.5625 57.644531 6.757812 58.222656 7.15625 C 58.804688 7.550781 59.21875 8.109375 59.46875 8.824219 C 59.789062 8.082031 60.253906 7.523438 60.867188 7.144531 C 61.480469 6.769531 62.214844 6.574219 63.066406 6.5625 Z M 63.066406 6.5625 "/>
<path style=" stroke:none;fill-rule:evenodd;fill:rgb(23.529412%,27.45098%,35.294118%);fill-opacity:1;" d="M 73.3125 6.5625 C 74.925781 6.5625 76.148438 7.011719 76.984375 7.917969 C 77.824219 8.824219 78.242188 10.082031 78.242188 11.699219 C 78.242188 11.992188 78.238281 12.214844 78.222656 12.371094 L 71.042969 12.371094 C 71.203125 12.984375 71.511719 13.464844 71.972656 13.808594 C 72.433594 14.152344 72.984375 14.324219 73.628906 14.324219 C 74.101562 14.324219 74.550781 14.238281 74.988281 14.0625 C 75.421875 13.886719 75.8125 13.632812 76.160156 13.292969 L 77.667969 14.777344 C 77.15625 15.332031 76.539062 15.757812 75.8125 16.054688 C 75.089844 16.347656 74.277344 16.496094 73.386719 16.496094 C 72.332031 16.496094 71.410156 16.292969 70.625 15.882812 C 69.835938 15.46875 69.230469 14.890625 68.800781 14.144531 C 68.371094 13.394531 68.160156 12.535156 68.160156 11.558594 C 68.160156 10.566406 68.375 9.695312 68.8125 8.941406 C 69.242188 8.1875 69.851562 7.601562 70.632812 7.1875 C 71.414062 6.769531 72.308594 6.5625 73.3125 6.5625 Z M 75.546875 10.722656 C 75.519531 10.082031 75.308594 9.570312 74.914062 9.183594 C 74.515625 8.800781 73.988281 8.605469 73.332031 8.605469 C 72.710938 8.605469 72.191406 8.796875 71.777344 9.175781 C 71.359375 9.554688 71.097656 10.074219 70.988281 10.722656 Z M 75.546875 10.722656 "/>
<path style=" stroke:none;fill-rule:evenodd;fill:rgb(23.529412%,27.45098%,35.294118%);fill-opacity:1;" d="M 86.707031 9.648438 C 86.160156 9.335938 85.621094 9.097656 85.089844 8.925781 C 84.554688 8.761719 84.078125 8.675781 83.65625 8.675781 C 83.308594 8.675781 83.03125 8.738281 82.820312 8.863281 C 82.609375 8.988281 82.503906 9.175781 82.503906 9.425781 C 82.503906 9.699219 82.644531 9.910156 82.933594 10.058594 C 83.21875 10.210938 83.683594 10.378906 84.328125 10.566406 C 85.03125 10.777344 85.617188 10.988281 86.074219 11.191406 C 86.53125 11.398438 86.929688 11.703125 87.265625 12.109375 C 87.597656 12.515625 87.765625 13.046875 87.765625 13.710938 C 87.765625 14.707031 87.386719 15.484375 86.625 16.039062 C 85.859375 16.59375 84.886719 16.871094 83.695312 16.871094 C 82.875 16.871094 82.089844 16.75 81.332031 16.507812 C 80.578125 16.261719 79.921875 15.917969 79.363281 15.46875 L 80.292969 13.523438 C 80.800781 13.921875 81.367188 14.230469 81.992188 14.449219 C 82.621094 14.667969 83.210938 14.777344 83.769531 14.777344 C 84.152344 14.777344 84.460938 14.710938 84.6875 14.578125 C 84.917969 14.449219 85.03125 14.253906 85.03125 13.988281 C 85.03125 13.703125 84.886719 13.476562 84.597656 13.316406 C 84.304688 13.152344 83.835938 12.980469 83.191406 12.792969 C 82.511719 12.59375 81.945312 12.394531 81.492188 12.191406 C 81.039062 11.992188 80.652344 11.691406 80.328125 11.285156 C 80.007812 10.878906 79.847656 10.355469 79.847656 9.703125 C 79.847656 8.707031 80.21875 7.933594 80.960938 7.382812 C 81.707031 6.835938 82.644531 6.5625 83.789062 6.5625 C 84.46875 6.5625 85.152344 6.65625 85.832031 6.851562 C 86.515625 7.046875 87.132812 7.320312 87.691406 7.683594 Z M 86.707031 9.648438 "/>
<path style=" stroke:none;fill-rule:evenodd;fill:rgb(23.529412%,27.45098%,35.294118%);fill-opacity:1;" d="M 95.792969 16 C 95.425781 16.222656 95.015625 16.390625 94.566406 16.507812 C 94.117188 16.625 93.664062 16.683594 93.210938 16.683594 C 92.285156 16.683594 91.535156 16.417969 90.953125 15.886719 C 90.375 15.359375 90.085938 14.601562 90.085938 13.613281 L 90.085938 9.007812 L 88.699219 9.007812 L 88.699219 7.046875 L 90.085938 7.046875 L 90.085938 4.3125 L 92.914062 4.3125 L 92.914062 7.046875 L 95.609375 7.046875 L 95.609375 9.027344 L 92.914062 9.027344 L 92.914062 13.132812 C 92.914062 13.898438 93.214844 14.277344 93.820312 14.277344 C 94.238281 14.277344 94.699219 14.15625 95.203125 13.910156 Z M 95.792969 16 "/>
<path style=" stroke:none;fill-rule:evenodd;fill:rgb(23.529412%,27.45098%,35.294118%);fill-opacity:1;" d="M 101.882812 6.5625 C 103.496094 6.5625 104.71875 7.011719 105.558594 7.917969 C 106.394531 8.824219 106.8125 10.082031 106.8125 11.699219 C 106.8125 11.992188 106.808594 12.214844 106.792969 12.371094 L 99.613281 12.371094 C 99.773438 12.984375 100.085938 13.464844 100.542969 13.808594 C 101.003906 14.152344 101.554688 14.324219 102.199219 14.324219 C 102.671875 14.324219 103.121094 14.238281 103.558594 14.0625 C 103.992188 13.886719 104.382812 13.632812 104.730469 13.292969 L 106.238281 14.777344 C 105.726562 15.332031 105.109375 15.757812 104.386719 16.054688 C 103.660156 16.347656 102.851562 16.496094 101.957031 16.496094 C 100.902344 16.496094 99.980469 16.292969 99.195312 15.882812 C 98.40625 15.46875 97.800781 14.890625 97.371094 14.144531 C 96.945312 13.394531 96.730469 12.535156 96.730469 11.558594 C 96.730469 10.566406 96.945312 9.695312 97.382812 8.941406 C 97.816406 8.1875 98.421875 7.601562 99.203125 7.1875 C 99.984375 6.769531 100.878906 6.5625 101.882812 6.5625 Z M 104.113281 10.722656 C 104.089844 10.082031 103.878906 9.570312 103.484375 9.183594 C 103.085938 8.800781 102.558594 8.605469 101.902344 8.605469 C 101.28125 8.605469 100.765625 8.796875 100.347656 9.175781 C 99.933594 9.554688 99.667969 10.074219 99.558594 10.722656 Z M 104.113281 10.722656 "/>
<path style=" stroke:none;fill-rule:evenodd;fill:rgb(23.529412%,27.45098%,35.294118%);fill-opacity:1;" d="M 111.539062 8.441406 C 111.886719 7.832031 112.335938 7.371094 112.894531 7.054688 C 113.449219 6.738281 114.101562 6.574219 114.84375 6.5625 L 114.84375 9.207031 C 114.746094 9.195312 114.59375 9.191406 114.398438 9.191406 C 113.519531 9.191406 112.824219 9.425781 112.308594 9.894531 C 111.796875 10.363281 111.539062 10.988281 111.539062 11.765625 L 111.539062 16.496094 L 108.679688 16.496094 L 108.679688 6.667969 L 111.539062 6.667969 Z M 111.539062 8.441406 "/>
<path style=" stroke:none;fill-rule:evenodd;fill:rgb(23.529412%,27.45098%,35.294118%);fill-opacity:1;" d="M 120.742188 6.5625 C 122.355469 6.5625 123.582031 7.011719 124.417969 7.917969 C 125.253906 8.824219 125.671875 10.082031 125.671875 11.699219 C 125.671875 11.992188 125.667969 12.214844 125.652344 12.371094 L 118.472656 12.371094 C 118.636719 12.984375 118.945312 13.464844 119.402344 13.808594 C 119.863281 14.152344 120.414062 14.324219 121.058594 14.324219 C 121.53125 14.324219 121.984375 14.238281 122.417969 14.0625 C 122.851562 13.886719 123.242188 13.632812 123.589844 13.292969 L 125.097656 14.777344 C 124.589844 15.332031 123.96875 15.757812 123.246094 16.054688 C 122.519531 16.347656 121.710938 16.496094 120.816406 16.496094 C 119.765625 16.496094 118.84375 16.292969 118.054688 15.882812 C 117.265625 15.46875 116.660156 14.890625 116.230469 14.144531 C 115.804688 13.394531 115.589844 12.535156 115.589844 11.558594 C 115.589844 10.566406 115.804688 9.695312 116.242188 8.941406 C 116.675781 8.1875 117.28125 7.601562 118.066406 7.1875 C 118.84375 6.769531 119.738281 6.5625 120.742188 6.5625 Z M 122.976562 10.722656 C 122.953125 10.082031 122.742188 9.570312 122.34375 9.183594 C 121.945312 8.800781 121.417969 8.605469 120.761719 8.605469 C 120.140625 8.605469 119.625 8.796875 119.207031 9.175781 C 118.792969 9.554688 118.53125 10.074219 118.417969 10.722656 Z M 122.976562 10.722656 "/>
<path style=" stroke:none;fill-rule:evenodd;fill:rgb(23.529412%,27.45098%,35.294118%);fill-opacity:1;" d="M 133.996094 6.5625 C 135.101562 6.5625 135.980469 6.902344 136.640625 7.582031 C 137.296875 8.265625 137.625 9.179688 137.625 10.324219 L 137.625 16.496094 L 134.785156 16.496094 L 134.785156 11.144531 C 134.785156 10.523438 134.609375 10.035156 134.261719 9.675781 C 133.910156 9.316406 133.433594 9.136719 132.832031 9.136719 C 132.132812 9.148438 131.582031 9.390625 131.175781 9.859375 C 130.769531 10.328125 130.566406 10.925781 130.566406 11.65625 L 130.566406 16.496094 L 127.726562 16.496094 L 127.726562 6.667969 L 130.566406 6.667969 L 130.566406 8.386719 C 131.253906 7.195312 132.398438 6.585938 133.996094 6.5625 Z M 133.996094 6.5625 "/>
<path style=" stroke:none;fill-rule:evenodd;fill:rgb(23.529412%,27.45098%,35.294118%);fill-opacity:1;" d="M 140.984375 13.496094 C 141.425781 13.496094 141.785156 13.636719 142.0625 13.914062 C 142.339844 14.1875 142.480469 14.546875 142.480469 14.988281 C 142.480469 15.425781 142.339844 15.789062 142.0625 16.074219 C 141.785156 16.355469 141.425781 16.496094 140.984375 16.496094 C 140.558594 16.496094 140.203125 16.351562 139.917969 16.0625 C 139.632812 15.773438 139.492188 15.414062 139.492188 14.988281 C 139.492188 14.546875 139.632812 14.1875 139.917969 13.914062 C 140.203125 13.636719 140.558594 13.496094 140.984375 13.496094 Z M 140.984375 13.496094 "/>
<path style=" stroke:none;fill-rule:evenodd;fill:rgb(23.529412%,27.45098%,35.294118%);fill-opacity:1;" d="M 154.429688 3 L 154.429688 16.386719 L 151.609375 16.386719 L 151.609375 14.960938 C 151.25 15.46875 150.808594 15.847656 150.28125 16.109375 C 149.75 16.367188 149.148438 16.496094 148.472656 16.496094 C 147.539062 16.496094 146.714844 16.289062 146.007812 15.875 C 145.300781 15.457031 144.753906 14.871094 144.367188 14.113281 C 143.980469 13.355469 143.785156 12.484375 143.785156 11.5 C 143.785156 10.523438 143.976562 9.664062 144.359375 8.917969 C 144.738281 8.171875 145.28125 7.59375 145.984375 7.1875 C 146.683594 6.777344 147.488281 6.574219 148.398438 6.574219 C 149.800781 6.574219 150.871094 7.082031 151.609375 8.105469 L 151.609375 3 Z M 149.136719 14.257812 C 149.863281 14.257812 150.457031 14.007812 150.917969 13.511719 C 151.378906 13.011719 151.609375 12.363281 151.609375 11.570312 C 151.609375 10.777344 151.378906 10.128906 150.917969 9.628906 C 150.457031 9.128906 149.863281 8.882812 149.136719 8.882812 C 148.398438 8.882812 147.800781 9.128906 147.339844 9.628906 C 146.878906 10.128906 146.640625 10.777344 146.628906 11.570312 C 146.640625 12.363281 146.878906 13.011719 147.339844 13.511719 C 147.800781 14.007812 148.398438 14.257812 149.136719 14.257812 Z M 149.136719 14.257812 "/>
<path style=" stroke:none;fill-rule:evenodd;fill:rgb(23.529412%,27.45098%,35.294118%);fill-opacity:1;" d="M 163.761719 16.308594 L 161.359375 12.324219 L 160.082031 13.652344 L 160.082031 16.308594 L 157.230469 16.308594 L 157.230469 2.8125 L 160.082031 2.8125 L 160.082031 10.234375 L 163.726562 6.539062 L 166.960938 6.539062 L 163.316406 10.304688 L 167.128906 16.308594 Z M 163.761719 16.308594 "/>
</g>
</svg>
