<svg width="20" height="15" viewBox="0 0 20 15" fill="none" xmlns="http://www.w3.org/2000/svg">
<path fill-rule="evenodd" clip-rule="evenodd" d="M17.064 3.91579C17.2461 4.18125 17.1885 4.55132 16.9338 4.74178L10.8986 9.27533C10.6364 9.47368 10.3269 9.57237 10.0184 9.57237C9.71178 9.57237 9.40422 9.47467 9.14194 9.27928L3.06713 4.74276C2.81334 4.55329 2.7539 4.18322 2.93504 3.91678C3.11713 3.65033 3.47092 3.58816 3.7247 3.77961L9.79858 8.31513C9.92971 8.41283 10.1061 8.41382 10.2382 8.31414L16.2744 3.78059C16.5281 3.58816 16.8819 3.65132 17.064 3.91579ZM18.8688 12.4342C18.8688 13.1961 18.2754 13.8168 17.548 13.8168H2.45295C1.72461 13.8168 1.13213 13.1961 1.13213 12.4342V2.56579C1.13213 1.80395 1.72461 1.18421 2.45295 1.18421H17.548C18.2754 1.18421 18.8688 1.80395 18.8688 2.56579V12.4342ZM17.548 0H2.45295C1.10005 0 0 1.15164 0 2.56579V12.4342C0 13.8493 1.10005 15 2.45295 15H17.548C18.8999 15 20 13.8493 20 12.4342V2.56579C20 1.15164 18.8999 0 17.548 0Z" fill="white"/>
</svg>
