<svg width="13" height="20" viewBox="0 0 13 20" fill="none" xmlns="http://www.w3.org/2000/svg">
<path fill-rule="evenodd" clip-rule="evenodd" d="M6.5 11.3208C3.56712 11.3208 1.18182 9.03585 1.18182 6.22642C1.18182 3.41792 3.56712 1.13208 6.5 1.13208C9.43288 1.13208 11.8182 3.41792 11.8182 6.22642C11.8182 9.03585 9.43288 11.3208 6.5 11.3208ZM6.5 0C2.91614 0 0 2.7934 0 6.22642C0 9.46887 2.60099 12.1368 5.90909 12.4245V19.434C5.90909 19.7472 6.17303 20 6.5 20C6.82697 20 7.09091 19.7472 7.09091 19.434V12.4245C10.399 12.1368 13 9.46887 13 6.22642C13 2.7934 10.0839 0 6.5 0Z" fill="white"/>
</svg>
