<svg width="135" height="20" viewBox="0 0 135 20" fill="none" xmlns="http://www.w3.org/2000/svg">
<path fill-rule="evenodd" clip-rule="evenodd" d="M5.41477 3.59161C7.04346 3.59161 8.30142 3.97751 9.1887 4.74932C10.076 5.52112 10.5196 6.61197 10.5196 8.02188C10.5196 9.50472 10.0729 10.6563 9.17958 11.4768C8.28623 12.2972 7.03131 12.7074 5.41477 12.7074H2.88058V16.3537H0V3.59161H5.41477ZM5.26892 10.3008C6.08326 10.3008 6.70617 10.1155 7.13765 9.74476C7.56913 9.37405 7.78487 8.83015 7.78487 8.11304C7.78487 7.40808 7.56913 6.87633 7.13765 6.51778C6.70617 6.15922 6.08326 5.97995 5.26892 5.97995H2.88058V10.3008H5.26892ZM16.5178 6.45397C18.0979 6.45397 19.2981 6.90975 20.1185 7.82133C20.9389 8.73291 21.3491 10.003 21.3491 11.6317C21.3491 11.9234 21.3431 12.1483 21.3309 12.3063H14.2935C14.4515 12.9262 14.7554 13.4093 15.2051 13.7557C15.6548 14.1021 16.1957 14.2753 16.8277 14.2753C17.2896 14.2753 17.7332 14.1872 18.1586 14.0109C18.584 13.8347 18.9669 13.5764 19.3072 13.2361L20.784 14.7311C20.2856 15.2902 19.681 15.7186 18.9699 16.0164C18.2589 16.3142 17.4658 16.4631 16.5907 16.4631C15.5576 16.4631 14.6551 16.2565 13.8833 15.8432C13.1115 15.43 12.516 14.8466 12.0966 14.093C11.6773 13.3394 11.4676 12.4704 11.4676 11.4859C11.4676 10.4892 11.6803 9.61106 12.1057 8.85141C12.5311 8.09176 13.1267 7.50228 13.8924 7.08295C14.6582 6.66363 15.5333 6.45397 16.5178 6.45397ZM18.7056 10.6472C18.6813 10.003 18.4746 9.48648 18.0857 9.09754C17.6967 8.7086 17.1802 8.51413 16.536 8.51413C15.9283 8.51413 15.4208 8.70556 15.0137 9.08842C14.6065 9.47129 14.3482 9.99088 14.2388 10.6472H18.7056ZM21.2944 17.5752C21.574 17.6603 21.8353 17.7089 22.0784 17.7211C22.4552 17.7332 22.7408 17.6177 22.9353 17.3747C23.1297 17.1316 23.227 16.7791 23.227 16.3172V6.54512H26.0164V16.7548C26.0164 17.7636 25.7247 18.5567 25.1413 19.134C24.5579 19.7113 23.7557 20 22.7347 20C21.9812 20 21.3066 19.8724 20.711 19.6171L21.2944 17.5752ZM25.1667 1.30711C25.1667 1.30711 25.0384 2.45475 24.5663 2.8088C24.5663 2.8088 25.0384 0.92029 24.1519 0C24.1519 0 24.1519 1.29818 23.5618 2.36033C23.2852 2.85822 23.0629 3.23125 23.0629 3.82862C23.0629 4.74748 23.7131 5.3783 24.6126 5.3783C25.5121 5.3783 26.1623 4.74748 26.1623 3.82862C26.1623 2.36033 25.1667 1.30711 25.1667 1.30711ZM34.804 9.42571C34.2692 9.12185 33.7405 8.88788 33.2179 8.72379C32.6952 8.55971 32.2273 8.47767 31.814 8.47767C31.4737 8.47767 31.2002 8.53844 30.9936 8.65998C30.787 8.78153 30.6837 8.96384 30.6837 9.20693C30.6837 9.47433 30.8235 9.68095 31.103 9.8268C31.3826 9.97265 31.8383 10.1367 32.4704 10.3191C33.1632 10.5257 33.7344 10.7293 34.1841 10.9298C34.6339 11.1304 35.0228 11.4281 35.351 11.8232C35.6791 12.2182 35.8432 12.7378 35.8432 13.382C35.8432 14.3543 35.4695 15.1109 34.722 15.6518C33.9745 16.1926 33.0173 16.4631 31.8505 16.4631C31.0483 16.4631 30.2765 16.3446 29.5351 16.1076C28.7937 15.8706 28.1495 15.5333 27.6026 15.0957L28.5141 13.1996C29.0125 13.5886 29.5685 13.8894 30.1823 14.1021C30.7961 14.3148 31.3765 14.4211 31.9234 14.4211C32.3002 14.4211 32.601 14.3573 32.8259 14.2297C33.0507 14.1021 33.1632 13.9107 33.1632 13.6554C33.1632 13.3759 33.0204 13.1571 32.7347 12.9991C32.4491 12.8411 31.9903 12.6709 31.3582 12.4886C30.6898 12.2941 30.1337 12.0997 29.6901 11.9052C29.2464 11.7107 28.8666 11.416 28.5506 11.021C28.2346 10.6259 28.0766 10.1124 28.0766 9.4804C28.0766 8.50805 28.4412 7.75448 29.1705 7.21969C29.8997 6.6849 30.8235 6.4175 31.9417 6.4175C32.6102 6.4175 33.2786 6.5117 33.9471 6.70009C34.6156 6.88848 35.2233 7.15892 35.7703 7.51139L34.804 9.42571ZM41.9325 6.45397C43.5126 6.45397 44.7128 6.90975 45.5333 7.82133C46.3537 8.73291 46.7639 10.003 46.7639 11.6317C46.7639 11.9234 46.7578 12.1483 46.7457 12.3063H39.7083C39.8663 12.9262 40.1702 13.4093 40.6199 13.7557C41.0696 14.1021 41.6105 14.2753 42.2425 14.2753C42.7043 14.2753 43.148 14.1872 43.5734 14.0109C43.9988 13.8347 44.3816 13.5764 44.722 13.2361L46.1987 14.7311C45.7004 15.2902 45.0957 15.7186 44.3847 16.0164C43.6737 16.3142 42.8806 16.4631 42.0055 16.4631C40.9723 16.4631 40.0699 16.2565 39.2981 15.8432C38.5263 15.43 37.9307 14.8466 37.5114 14.093C37.0921 13.3394 36.8824 12.4704 36.8824 11.4859C36.8824 10.4892 37.0951 9.61106 37.5205 8.85141C37.9459 8.09176 38.5415 7.50228 39.3072 7.08295C40.0729 6.66363 40.948 6.45397 41.9325 6.45397ZM44.1203 10.6472C44.096 10.003 43.8894 9.48648 43.5005 9.09754C43.1115 8.7086 42.595 8.51413 41.9508 8.51413C41.3431 8.51413 40.8356 8.70556 40.4284 9.08842C40.0213 9.47129 39.763 9.99088 39.6536 10.6472H44.1203ZM61.5861 6.43573C62.6679 6.43573 63.5278 6.77301 64.1659 7.44758C64.804 8.12215 65.1231 9.03676 65.1231 10.1914V16.3537H62.3336V11.0119C62.3336 10.3798 62.1635 9.88757 61.8232 9.5351C61.4828 9.18262 61.021 9.00638 60.4376 9.00638C59.7691 9.01854 59.2404 9.25554 58.8514 9.71741C58.4625 10.1793 58.268 10.7748 58.268 11.5041V16.3537H55.4786V11.0119C55.4786 10.392 55.3115 9.90277 54.9772 9.54421C54.643 9.18566 54.1841 9.00638 53.6007 9.00638C52.9322 9.01854 52.4005 9.25554 52.0055 9.71741C51.6105 10.1793 51.4129 10.7748 51.4129 11.5041V16.3537H48.6053V6.54512H51.4129V8.24066C52.0936 7.06168 53.1996 6.46004 54.7311 6.43573C55.5576 6.43573 56.2565 6.63324 56.8277 7.02826C57.399 7.42328 57.8061 7.97933 58.0492 8.69644C58.3652 7.95503 58.8241 7.39593 59.4257 7.01914C60.0273 6.64236 60.7475 6.44789 61.5861 6.43573ZM71.7593 6.45397C73.3394 6.45397 74.5396 6.90975 75.3601 7.82133C76.1805 8.73291 76.5907 10.003 76.5907 11.6317C76.5907 11.9234 76.5846 12.1483 76.5725 12.3063H69.5351C69.6931 12.9262 69.997 13.4093 70.4467 13.7557C70.8964 14.1021 71.4372 14.2753 72.0693 14.2753C72.5311 14.2753 72.9748 14.1872 73.4002 14.0109C73.8256 13.8347 74.2084 13.5764 74.5488 13.2361L76.0255 14.7311C75.5272 15.2902 74.9225 15.7186 74.2115 16.0164C73.5005 16.3142 72.7074 16.4631 71.8323 16.4631C70.7991 16.4631 69.8967 16.2565 69.1249 15.8432C68.3531 15.43 67.7575 14.8466 67.3382 14.093C66.9189 13.3394 66.7092 12.4704 66.7092 11.4859C66.7092 10.4892 66.9219 9.61106 67.3473 8.85141C67.7727 8.09176 68.3683 7.50228 69.134 7.08295C69.8997 6.66363 70.7748 6.45397 71.7593 6.45397ZM73.9471 10.6472C73.9228 10.003 73.7162 9.48648 73.3273 9.09754C72.9383 8.7086 72.4218 8.51413 71.7776 8.51413C71.1699 8.51413 70.6624 8.70556 70.2552 9.08842C69.8481 9.47129 69.5898 9.99088 69.4804 10.6472H73.9471ZM84.6126 9.42571C84.0778 9.12185 83.5491 8.88788 83.0264 8.72379C82.5038 8.55971 82.0359 8.47767 81.6226 8.47767C81.2823 8.47767 81.0088 8.53844 80.8022 8.65998C80.5956 8.78153 80.4922 8.96384 80.4922 9.20693C80.4922 9.47433 80.632 9.68095 80.9116 9.8268C81.1911 9.97265 81.6469 10.1367 82.2789 10.3191C82.9717 10.5257 83.543 10.7293 83.9927 10.9298C84.4424 11.1304 84.8314 11.4281 85.1595 11.8232C85.4877 12.2182 85.6518 12.7378 85.6518 13.382C85.6518 14.3543 85.278 15.1109 84.5305 15.6518C83.783 16.1926 82.8259 16.4631 81.6591 16.4631C80.8569 16.4631 80.0851 16.3446 79.3437 16.1076C78.6022 15.8706 77.9581 15.5333 77.4111 15.0957L78.3227 13.1996C78.821 13.5886 79.3771 13.8894 79.9909 14.1021C80.6047 14.3148 81.185 14.4211 81.732 14.4211C82.1088 14.4211 82.4096 14.3573 82.6345 14.2297C82.8593 14.1021 82.9717 13.9107 82.9717 13.6554C82.9717 13.3759 82.8289 13.1571 82.5433 12.9991C82.2577 12.8411 81.7988 12.6709 81.1668 12.4886C80.4983 12.2941 79.9423 12.0997 79.4986 11.9052C79.055 11.7107 78.6752 11.416 78.3592 11.021C78.0431 10.6259 77.8851 10.1124 77.8851 9.4804C77.8851 8.50805 78.2498 7.75448 78.979 7.21969C79.7083 6.6849 80.632 6.4175 81.7502 6.4175C82.4187 6.4175 83.0872 6.5117 83.7557 6.70009C84.4242 6.88848 85.0319 7.15892 85.5788 7.51139L84.6126 9.42571ZM93.6007 15.8067C93.2361 16.0255 92.832 16.1926 92.3883 16.3081C91.9447 16.4236 91.498 16.4813 91.0483 16.4813C90.1367 16.4813 89.3953 16.22 88.8241 15.6974C88.2528 15.1747 87.9672 14.4272 87.9672 13.4549V8.91522H86.5998V6.98268H87.9672V4.28441H90.7566V6.98268H93.4184V8.93345H90.7566V12.9809C90.7566 13.7344 91.0544 14.1112 91.6499 14.1112C92.0632 14.1112 92.519 13.9897 93.0173 13.7466L93.6007 15.8067ZM99.5078 6.45397C101.088 6.45397 102.288 6.90975 103.108 7.82133C103.929 8.73291 104.339 10.003 104.339 11.6317C104.339 11.9234 104.333 12.1483 104.321 12.3063H97.2835C97.4415 12.9262 97.7454 13.4093 98.1951 13.7557C98.6448 14.1021 99.1857 14.2753 99.8177 14.2753C100.28 14.2753 100.723 14.1872 101.149 14.0109C101.574 13.8347 101.957 13.5764 102.297 13.2361L103.774 14.7311C103.276 15.2902 102.671 15.7186 101.96 16.0164C101.249 16.3142 100.456 16.4631 99.5807 16.4631C98.5475 16.4631 97.6451 16.2565 96.8733 15.8432C96.1015 15.43 95.5059 14.8466 95.0866 14.093C94.6673 13.3394 94.4576 12.4704 94.4576 11.4859C94.4576 10.4892 94.6703 9.61106 95.0957 8.85141C95.5211 8.09176 96.1167 7.50228 96.8824 7.08295C97.6481 6.66363 98.5232 6.45397 99.5078 6.45397ZM101.696 10.6472C101.671 10.003 101.465 9.48648 101.076 9.09754C100.687 8.7086 100.17 8.51413 99.526 8.51413C98.9183 8.51413 98.4108 8.70556 98.0036 9.08842C97.5965 9.47129 97.3382 9.99088 97.2288 10.6472H101.696ZM108.988 8.31358C109.328 7.70586 109.772 7.244 110.319 6.92799C110.866 6.61197 111.504 6.44789 112.233 6.43573V9.07931C112.136 9.06715 111.99 9.06108 111.796 9.06108C110.933 9.06108 110.249 9.29504 109.745 9.76299C109.24 10.2309 108.988 10.8538 108.988 11.6317V16.3537H106.18V6.54512H108.988V8.31358ZM117.976 6.45397C119.556 6.45397 120.757 6.90975 121.577 7.82133C122.397 8.73291 122.808 10.003 122.808 11.6317C122.808 11.9234 122.802 12.1483 122.789 12.3063H115.752C115.91 12.9262 116.214 13.4093 116.664 13.7557C117.113 14.1021 117.654 14.2753 118.286 14.2753C118.748 14.2753 119.192 14.1872 119.617 14.0109C120.043 13.8347 120.425 13.5764 120.766 13.2361L122.242 14.7311C121.744 15.2902 121.139 15.7186 120.428 16.0164C119.717 16.3142 118.924 16.4631 118.049 16.4631C117.016 16.4631 116.114 16.2565 115.342 15.8432C114.57 15.43 113.974 14.8466 113.555 14.093C113.136 13.3394 112.926 12.4704 112.926 11.4859C112.926 10.4892 113.139 9.61106 113.564 8.85141C113.99 8.09176 114.585 7.50228 115.351 7.08295C116.117 6.66363 116.992 6.45397 117.976 6.45397ZM120.164 10.6472C120.14 10.003 119.933 9.48648 119.544 9.09754C119.155 8.7086 118.639 8.51413 117.995 8.51413C117.387 8.51413 116.879 8.70556 116.472 9.08842C116.065 9.47129 115.807 9.99088 115.697 10.6472H120.164ZM130.848 6.43573C131.942 6.43573 132.814 6.77605 133.464 7.4567C134.114 8.13735 134.439 9.04892 134.439 10.1914V16.3537H131.632V11.0119C131.632 10.392 131.459 9.90277 131.112 9.54421C130.766 9.18566 130.295 9.00638 129.699 9.00638C129.006 9.01854 128.459 9.25858 128.058 9.72653C127.657 10.1945 127.457 10.7931 127.457 11.5223V16.3537H124.649V6.54512H127.457V8.25889C128.137 7.06775 129.268 6.46004 130.848 6.43573Z" fill="white"/>
</svg>
