<?xml version="1.0" encoding="UTF-8"?>
<svg xmlns="http://www.w3.org/2000/svg" xmlns:xlink="http://www.w3.org/1999/xlink" width="133pt" height="16pt" viewBox="0 0 133 16" version="1.1">
<g id="surface1">
<path style=" stroke:none;fill-rule:evenodd;fill:rgb(23.529412%,27.45098%,35.294118%);fill-opacity:1;" d="M 4.355469 3 C 5.671875 3 6.683594 3.3125 7.394531 3.9375 C 8.109375 4.5625 8.46875 5.445312 8.46875 6.589844 C 8.46875 7.792969 8.105469 8.726562 7.390625 9.394531 C 6.667969 10.058594 5.660156 10.390625 4.355469 10.390625 L 2.316406 10.390625 L 2.316406 13.347656 L 0 13.347656 L 0 3 Z M 4.242188 8.441406 C 4.898438 8.441406 5.398438 8.289062 5.746094 7.988281 C 6.09375 7.6875 6.265625 7.246094 6.265625 6.664062 C 6.265625 6.09375 6.09375 5.664062 5.746094 5.371094 C 5.398438 5.082031 4.898438 4.933594 4.242188 4.933594 L 2.316406 4.933594 L 2.316406 8.441406 Z M 4.242188 8.441406 "/>
<path style=" stroke:none;fill-rule:evenodd;fill:rgb(23.529412%,27.45098%,35.294118%);fill-opacity:1;" d="M 13.457031 5.25 C 14.742188 5.25 15.714844 5.609375 16.382812 6.335938 C 17.046875 7.058594 17.378906 8.066406 17.378906 9.359375 C 17.378906 9.59375 17.371094 9.773438 17.363281 9.898438 L 11.652344 9.898438 C 11.78125 10.386719 12.027344 10.773438 12.390625 11.046875 C 12.757812 11.320312 13.195312 11.460938 13.710938 11.460938 C 14.082031 11.460938 14.445312 11.390625 14.789062 11.25 C 15.136719 11.109375 15.445312 10.90625 15.722656 10.632812 L 16.917969 11.820312 C 16.515625 12.265625 16.023438 12.605469 15.449219 12.84375 C 14.871094 13.078125 14.226562 13.195312 13.515625 13.195312 C 12.675781 13.195312 11.945312 13.035156 11.320312 12.707031 C 10.691406 12.375 10.207031 11.914062 9.867188 11.316406 C 9.527344 10.714844 9.359375 10.027344 9.359375 9.246094 C 9.359375 8.453125 9.53125 7.757812 9.875 7.152344 C 10.21875 6.550781 10.703125 6.082031 11.324219 5.75 C 11.949219 5.414062 12.660156 5.25 13.457031 5.25 Z M 15.234375 8.578125 C 15.214844 8.066406 15.046875 7.65625 14.726562 7.347656 C 14.414062 7.039062 13.996094 6.882812 13.472656 6.882812 C 12.980469 6.882812 12.566406 7.039062 12.234375 7.339844 C 11.90625 7.644531 11.695312 8.058594 11.609375 8.578125 Z M 15.234375 8.578125 "/>
<path style=" stroke:none;fill-rule:evenodd;fill:rgb(23.529412%,27.45098%,35.294118%);fill-opacity:1;" d="M 17.40625 14.101562 C 17.632812 14.167969 17.84375 14.207031 18.042969 14.21875 C 18.351562 14.226562 18.582031 14.132812 18.738281 13.941406 C 18.898438 13.742188 18.976562 13.460938 18.976562 13.089844 L 18.976562 5.25 L 21.242188 5.25 L 21.242188 13.441406 C 21.242188 14.25 21.003906 14.886719 20.53125 15.351562 C 20.058594 15.816406 19.40625 16.046875 18.578125 16.046875 C 17.964844 16.046875 17.417969 15.945312 16.933594 15.742188 Z M 17.40625 14.101562 "/>
<path style=" stroke:none;fill-rule:evenodd;fill:rgb(98.039216%,47.058824%,23.529412%);fill-opacity:1;" d="M 18.773438 2.191406 C 18.820312 2.191406 18.859375 2.222656 18.875 2.265625 C 18.929688 2.398438 18.980469 2.527344 19.078125 2.648438 C 19.125 2.707031 19.183594 2.6875 19.207031 2.675781 C 19.246094 2.652344 19.285156 2.601562 19.265625 2.53125 C 19.199219 2.3125 19.207031 2.078125 19.207031 1.855469 C 19.207031 1.097656 19.886719 0.207031 20.453125 0.0078125 C 20.492188 -0.0078125 20.53125 0 20.5625 0.0273438 C 20.59375 0.0546875 20.605469 0.0976562 20.597656 0.132812 C 20.515625 0.527344 20.335938 1.285156 20.453125 1.726562 C 20.464844 1.773438 20.5 1.863281 20.550781 1.847656 C 20.605469 1.828125 20.589844 1.769531 20.597656 1.726562 C 20.652344 1.445312 20.8125 1.203125 21.066406 1.0625 C 21.195312 0.992188 21.273438 1.035156 21.3125 1.066406 C 21.402344 1.140625 21.375 1.257812 21.367188 1.296875 C 21.324219 1.46875 21.292969 1.648438 21.320312 1.820312 C 21.34375 1.945312 21.398438 2.0625 21.453125 2.191406 C 21.488281 2.273438 21.523438 2.355469 21.550781 2.441406 C 21.695312 2.863281 21.640625 3.335938 21.398438 3.738281 C 21.152344 4.140625 20.765625 4.414062 20.328125 4.480469 C 20.253906 4.492188 20.179688 4.5 20.101562 4.5 C 19.695312 4.5 19.289062 4.332031 19.003906 4.035156 C 18.59375 3.609375 18.449219 2.804688 18.671875 2.261719 C 18.6875 2.21875 18.726562 2.191406 18.773438 2.191406 Z M 18.773438 2.191406 "/>
<path style=" stroke:none;fill-rule:evenodd;fill:rgb(23.529412%,27.45098%,35.294118%);fill-opacity:1;" d="M 28.417969 7.71875 C 27.988281 7.46875 27.558594 7.277344 27.132812 7.140625 C 26.710938 7.007812 26.332031 6.941406 25.996094 6.941406 C 25.71875 6.941406 25.5 6.992188 25.328125 7.089844 C 25.160156 7.191406 25.078125 7.339844 25.078125 7.539062 C 25.078125 7.757812 25.191406 7.929688 25.417969 8.046875 C 25.644531 8.167969 26.015625 8.304688 26.527344 8.453125 C 27.089844 8.621094 27.550781 8.789062 27.914062 8.953125 C 28.28125 9.117188 28.597656 9.363281 28.863281 9.6875 C 29.128906 10.011719 29.265625 10.4375 29.265625 10.96875 C 29.265625 11.765625 28.960938 12.386719 28.355469 12.832031 C 27.746094 13.273438 26.972656 13.496094 26.023438 13.496094 C 25.375 13.496094 24.746094 13.398438 24.144531 13.207031 C 23.542969 13.007812 23.023438 12.734375 22.578125 12.375 L 23.316406 10.820312 C 23.71875 11.136719 24.171875 11.382812 24.671875 11.558594 C 25.167969 11.734375 25.640625 11.820312 26.082031 11.820312 C 26.386719 11.820312 26.632812 11.769531 26.816406 11.664062 C 26.996094 11.558594 27.089844 11.402344 27.089844 11.191406 C 27.089844 10.960938 26.972656 10.78125 26.742188 10.652344 C 26.507812 10.523438 26.136719 10.382812 25.625 10.234375 C 25.082031 10.074219 24.632812 9.914062 24.269531 9.753906 C 23.914062 9.59375 23.605469 9.351562 23.347656 9.027344 C 23.089844 8.703125 22.960938 8.285156 22.960938 7.761719 C 22.960938 6.964844 23.257812 6.347656 23.851562 5.90625 C 24.441406 5.46875 25.191406 5.25 26.097656 5.25 C 26.636719 5.25 27.183594 5.324219 27.722656 5.480469 C 28.265625 5.636719 28.761719 5.855469 29.203125 6.148438 Z M 28.417969 7.71875 "/>
<path style=" stroke:none;fill-rule:evenodd;fill:rgb(23.529412%,27.45098%,35.294118%);fill-opacity:1;" d="M 34.105469 5.25 C 35.386719 5.25 36.359375 5.609375 37.027344 6.335938 C 37.695312 7.058594 38.027344 8.066406 38.027344 9.359375 C 38.027344 9.59375 38.019531 9.773438 38.011719 9.898438 L 32.300781 9.898438 C 32.425781 10.386719 32.675781 10.773438 33.039062 11.046875 C 33.402344 11.320312 33.84375 11.460938 34.355469 11.460938 C 34.730469 11.460938 35.089844 11.390625 35.433594 11.25 C 35.78125 11.109375 36.09375 10.90625 36.371094 10.632812 L 37.566406 11.820312 C 37.164062 12.265625 36.671875 12.605469 36.097656 12.84375 C 35.519531 13.078125 34.871094 13.195312 34.164062 13.195312 C 33.324219 13.195312 32.59375 13.035156 31.96875 12.707031 C 31.339844 12.375 30.859375 11.914062 30.515625 11.316406 C 30.175781 10.714844 30.003906 10.027344 30.003906 9.246094 C 30.003906 8.453125 30.175781 7.757812 30.523438 7.152344 C 30.871094 6.550781 31.351562 6.082031 31.972656 5.75 C 32.59375 5.414062 33.304688 5.25 34.105469 5.25 Z M 35.878906 8.578125 C 35.859375 8.066406 35.691406 7.65625 35.375 7.347656 C 35.0625 7.039062 34.644531 6.882812 34.121094 6.882812 C 33.625 6.882812 33.214844 7.039062 32.882812 7.339844 C 32.550781 7.644531 32.34375 8.058594 32.257812 8.578125 Z M 35.878906 8.578125 "/>
<path style=" stroke:none;fill-rule:evenodd;fill:rgb(23.529412%,27.45098%,35.294118%);fill-opacity:1;" d="M 50.167969 5.25 C 51.042969 5.25 51.734375 5.519531 52.253906 6.058594 C 52.769531 6.601562 53.027344 7.335938 53.027344 8.257812 L 53.027344 13.195312 L 50.769531 13.195312 L 50.769531 8.914062 C 50.769531 8.410156 50.632812 8.015625 50.359375 7.730469 C 50.082031 7.449219 49.710938 7.308594 49.238281 7.308594 C 48.695312 7.320312 48.269531 7.507812 47.953125 7.878906 C 47.636719 8.25 47.480469 8.726562 47.480469 9.308594 L 47.480469 13.195312 L 45.222656 13.195312 L 45.222656 8.914062 C 45.222656 8.417969 45.089844 8.027344 44.816406 7.742188 C 44.546875 7.453125 44.175781 7.308594 43.703125 7.308594 C 43.164062 7.320312 42.730469 7.507812 42.414062 7.878906 C 42.089844 8.25 41.933594 8.726562 41.933594 9.308594 L 41.933594 13.195312 L 39.660156 13.195312 L 39.660156 5.335938 L 41.933594 5.335938 L 41.933594 6.695312 C 42.480469 5.75 43.378906 5.269531 44.621094 5.25 C 45.289062 5.25 45.855469 5.40625 46.3125 5.726562 C 46.777344 6.039062 47.105469 6.488281 47.304688 7.058594 C 47.558594 6.464844 47.929688 6.019531 48.417969 5.714844 C 48.90625 5.414062 49.488281 5.257812 50.167969 5.25 Z M 50.167969 5.25 "/>
<path style=" stroke:none;fill-rule:evenodd;fill:rgb(23.529412%,27.45098%,35.294118%);fill-opacity:1;" d="M 58.316406 5.25 C 59.601562 5.25 60.574219 5.609375 61.238281 6.335938 C 61.90625 7.058594 62.238281 8.066406 62.238281 9.359375 C 62.238281 9.59375 62.234375 9.773438 62.222656 9.898438 L 56.511719 9.898438 C 56.640625 10.386719 56.882812 10.773438 57.25 11.046875 C 57.617188 11.320312 58.054688 11.460938 58.570312 11.460938 C 58.945312 11.460938 59.300781 11.390625 59.648438 11.25 C 59.996094 11.109375 60.304688 10.90625 60.582031 10.632812 L 61.78125 11.820312 C 61.375 12.265625 60.882812 12.605469 60.304688 12.84375 C 59.730469 13.078125 59.085938 13.195312 58.375 13.195312 C 57.535156 13.195312 56.804688 13.035156 56.179688 12.707031 C 55.550781 12.375 55.070312 11.914062 54.726562 11.316406 C 54.386719 10.714844 54.21875 10.027344 54.21875 9.246094 C 54.21875 8.453125 54.390625 7.757812 54.738281 7.152344 C 55.078125 6.550781 55.5625 6.082031 56.183594 5.75 C 56.804688 5.414062 57.519531 5.25 58.316406 5.25 Z M 60.09375 8.578125 C 60.074219 8.066406 59.90625 7.65625 59.589844 7.347656 C 59.273438 7.039062 58.855469 6.882812 58.332031 6.882812 C 57.839844 6.882812 57.425781 7.039062 57.09375 7.339844 C 56.761719 7.644531 56.554688 8.058594 56.46875 8.578125 Z M 60.09375 8.578125 "/>
<path style=" stroke:none;fill-rule:evenodd;fill:rgb(23.529412%,27.45098%,35.294118%);fill-opacity:1;" d="M 68.972656 7.71875 C 68.535156 7.46875 68.109375 7.277344 67.683594 7.140625 C 67.257812 7.007812 66.878906 6.941406 66.542969 6.941406 C 66.269531 6.941406 66.046875 6.992188 65.878906 7.089844 C 65.710938 7.191406 65.628906 7.339844 65.628906 7.539062 C 65.628906 7.757812 65.738281 7.929688 65.96875 8.046875 C 66.195312 8.167969 66.566406 8.304688 67.078125 8.453125 C 67.636719 8.621094 68.105469 8.789062 68.46875 8.953125 C 68.832031 9.117188 69.148438 9.363281 69.414062 9.6875 C 69.679688 10.011719 69.8125 10.4375 69.8125 10.96875 C 69.8125 11.765625 69.511719 12.386719 68.90625 12.832031 C 68.296875 13.273438 67.523438 13.496094 66.574219 13.496094 C 65.921875 13.496094 65.296875 13.398438 64.695312 13.207031 C 64.097656 13.007812 63.574219 12.734375 63.128906 12.375 L 63.871094 10.820312 C 64.273438 11.136719 64.722656 11.382812 65.222656 11.558594 C 65.722656 11.734375 66.191406 11.820312 66.636719 11.820312 C 66.9375 11.820312 67.183594 11.769531 67.363281 11.664062 C 67.546875 11.558594 67.636719 11.402344 67.636719 11.191406 C 67.636719 10.960938 67.523438 10.78125 67.292969 10.652344 C 67.0625 10.523438 66.6875 10.382812 66.175781 10.234375 C 65.632812 10.074219 65.183594 9.914062 64.824219 9.753906 C 64.460938 9.59375 64.15625 9.351562 63.898438 9.027344 C 63.640625 8.703125 63.515625 8.285156 63.515625 7.761719 C 63.515625 6.964844 63.808594 6.347656 64.402344 5.90625 C 64.996094 5.46875 65.738281 5.25 66.648438 5.25 C 67.191406 5.25 67.734375 5.324219 68.277344 5.480469 C 68.820312 5.636719 69.308594 5.855469 69.753906 6.148438 Z M 68.972656 7.71875 "/>
<path style=" stroke:none;fill-rule:evenodd;fill:rgb(23.529412%,27.45098%,35.294118%);fill-opacity:1;" d="M 76.199219 12.800781 C 75.90625 12.976562 75.582031 13.113281 75.222656 13.207031 C 74.867188 13.300781 74.503906 13.347656 74.144531 13.347656 C 73.410156 13.347656 72.8125 13.132812 72.347656 12.710938 C 71.890625 12.289062 71.660156 11.679688 71.660156 10.890625 L 71.660156 7.207031 L 70.554688 7.207031 L 70.554688 5.636719 L 71.660156 5.636719 L 71.660156 3.449219 L 73.910156 3.449219 L 73.910156 5.636719 L 76.054688 5.636719 L 76.054688 7.222656 L 73.910156 7.222656 L 73.910156 10.507812 C 73.910156 11.117188 74.148438 11.421875 74.628906 11.421875 C 74.960938 11.421875 75.328125 11.324219 75.730469 11.128906 Z M 76.199219 12.800781 "/>
<path style=" stroke:none;fill-rule:evenodd;fill:rgb(23.529412%,27.45098%,35.294118%);fill-opacity:1;" d="M 81.042969 5.25 C 82.328125 5.25 83.300781 5.609375 83.96875 6.335938 C 84.632812 7.058594 84.964844 8.066406 84.964844 9.359375 C 84.964844 9.59375 84.960938 9.773438 84.949219 9.898438 L 79.238281 9.898438 C 79.367188 10.386719 79.613281 10.773438 79.976562 11.046875 C 80.34375 11.320312 80.78125 11.460938 81.292969 11.460938 C 81.671875 11.460938 82.027344 11.390625 82.375 11.25 C 82.722656 11.109375 83.03125 10.90625 83.308594 10.632812 L 84.507812 11.820312 C 84.101562 12.265625 83.609375 12.605469 83.035156 12.84375 C 82.457031 13.078125 81.8125 13.195312 81.101562 13.195312 C 80.261719 13.195312 79.53125 13.035156 78.90625 12.707031 C 78.277344 12.375 77.796875 11.914062 77.453125 11.316406 C 77.117188 10.714844 76.945312 10.027344 76.945312 9.246094 C 76.945312 8.453125 77.117188 7.757812 77.464844 7.152344 C 77.808594 6.550781 78.289062 6.082031 78.910156 5.75 C 79.53125 5.414062 80.246094 5.25 81.042969 5.25 Z M 82.816406 8.578125 C 82.796875 8.066406 82.632812 7.65625 82.316406 7.347656 C 82 7.039062 81.582031 6.882812 81.058594 6.882812 C 80.566406 6.882812 80.15625 7.039062 79.820312 7.339844 C 79.492188 7.644531 79.28125 8.058594 79.195312 8.578125 Z M 82.816406 8.578125 "/>
<path style=" stroke:none;fill-rule:evenodd;fill:rgb(23.529412%,27.45098%,35.294118%);fill-opacity:1;" d="M 88.722656 6.753906 C 89 6.265625 89.359375 5.898438 89.800781 5.644531 C 90.242188 5.390625 90.761719 5.257812 91.351562 5.25 L 91.351562 7.367188 C 91.273438 7.355469 91.152344 7.351562 91 7.351562 C 90.300781 7.351562 89.746094 7.539062 89.335938 7.914062 C 88.929688 8.289062 88.722656 8.789062 88.722656 9.414062 L 88.722656 13.195312 L 86.449219 13.195312 L 86.449219 5.335938 L 88.722656 5.335938 Z M 88.722656 6.753906 "/>
<path style=" stroke:none;fill-rule:evenodd;fill:rgb(23.529412%,27.45098%,35.294118%);fill-opacity:1;" d="M 96.046875 5.25 C 97.328125 5.25 98.304688 5.609375 98.96875 6.335938 C 99.632812 7.058594 99.964844 8.066406 99.964844 9.359375 C 99.964844 9.59375 99.964844 9.773438 99.949219 9.898438 L 94.238281 9.898438 C 94.371094 10.386719 94.617188 10.773438 94.980469 11.046875 C 95.347656 11.320312 95.785156 11.460938 96.296875 11.460938 C 96.671875 11.460938 97.03125 11.390625 97.378906 11.25 C 97.722656 11.109375 98.035156 10.90625 98.308594 10.632812 L 99.507812 11.820312 C 99.105469 12.265625 98.613281 12.605469 98.035156 12.84375 C 97.457031 13.078125 96.816406 13.195312 96.105469 13.195312 C 95.269531 13.195312 94.535156 13.035156 93.90625 12.707031 C 93.28125 12.375 92.796875 11.914062 92.457031 11.316406 C 92.117188 10.714844 91.945312 10.027344 91.945312 9.246094 C 91.945312 8.453125 92.117188 7.757812 92.464844 7.152344 C 92.808594 6.550781 93.292969 6.082031 93.917969 5.75 C 94.535156 5.414062 95.246094 5.25 96.046875 5.25 Z M 97.820312 8.578125 C 97.804688 8.066406 97.636719 7.65625 97.320312 7.347656 C 97 7.039062 96.582031 6.882812 96.058594 6.882812 C 95.566406 6.882812 95.15625 7.039062 94.824219 7.339844 C 94.496094 7.644531 94.285156 8.058594 94.195312 8.578125 Z M 97.820312 8.578125 "/>
<path style=" stroke:none;fill-rule:evenodd;fill:rgb(23.529412%,27.45098%,35.294118%);fill-opacity:1;" d="M 106.585938 5.25 C 107.46875 5.25 108.167969 5.523438 108.691406 6.066406 C 109.214844 6.613281 109.472656 7.34375 109.472656 8.257812 L 109.472656 13.195312 L 107.214844 13.195312 L 107.214844 8.914062 C 107.214844 8.417969 107.074219 8.027344 106.800781 7.742188 C 106.519531 7.453125 106.140625 7.308594 105.660156 7.308594 C 105.105469 7.320312 104.667969 7.511719 104.34375 7.886719 C 104.019531 8.261719 103.859375 8.742188 103.859375 9.324219 L 103.859375 13.195312 L 101.601562 13.195312 L 101.601562 5.335938 L 103.859375 5.335938 L 103.859375 6.710938 C 104.40625 5.757812 105.316406 5.269531 106.585938 5.25 Z M 106.585938 5.25 "/>
<path style=" stroke:none;fill-rule:evenodd;fill:rgb(23.529412%,27.45098%,35.294118%);fill-opacity:1;" d="M 112.148438 10.796875 C 112.496094 10.796875 112.785156 10.910156 113.003906 11.132812 C 113.226562 11.351562 113.335938 11.636719 113.335938 11.992188 C 113.335938 12.339844 113.226562 12.632812 113.003906 12.859375 C 112.785156 13.085938 112.496094 13.195312 112.148438 13.195312 C 111.808594 13.195312 111.523438 13.082031 111.296875 12.851562 C 111.070312 12.617188 110.960938 12.332031 110.960938 11.992188 C 110.960938 11.636719 111.070312 11.351562 111.296875 11.132812 C 111.523438 10.910156 111.808594 10.796875 112.148438 10.796875 Z M 112.148438 10.796875 "/>
<path style=" stroke:none;fill-rule:evenodd;fill:rgb(23.529412%,27.45098%,35.294118%);fill-opacity:1;" d="M 122.84375 2.398438 L 122.84375 13.109375 L 120.597656 13.109375 L 120.597656 11.96875 C 120.3125 12.375 119.960938 12.679688 119.542969 12.886719 C 119.121094 13.09375 118.640625 13.195312 118.101562 13.195312 C 117.359375 13.195312 116.703125 13.03125 116.140625 12.699219 C 115.582031 12.367188 115.144531 11.898438 114.835938 11.289062 C 114.53125 10.683594 114.375 9.988281 114.375 9.199219 C 114.375 8.417969 114.527344 7.730469 114.832031 7.132812 C 115.132812 6.539062 115.566406 6.074219 116.125 5.75 C 116.679688 5.421875 117.320312 5.257812 118.042969 5.257812 C 119.160156 5.257812 120.011719 5.664062 120.597656 6.484375 L 120.597656 2.398438 Z M 118.632812 11.40625 C 119.210938 11.40625 119.683594 11.207031 120.046875 10.808594 C 120.414062 10.410156 120.597656 9.890625 120.597656 9.257812 C 120.597656 8.621094 120.414062 8.101562 120.046875 7.703125 C 119.683594 7.304688 119.210938 7.105469 118.632812 7.105469 C 118.042969 7.105469 117.570312 7.304688 117.203125 7.703125 C 116.835938 8.101562 116.644531 8.621094 116.636719 9.257812 C 116.644531 9.890625 116.835938 10.410156 117.203125 10.808594 C 117.570312 11.207031 118.042969 11.40625 118.632812 11.40625 Z M 118.632812 11.40625 "/>
<path style=" stroke:none;fill-rule:evenodd;fill:rgb(23.529412%,27.45098%,35.294118%);fill-opacity:1;" d="M 130.265625 13.046875 L 128.355469 9.859375 L 127.339844 10.921875 L 127.339844 13.046875 L 125.070312 13.046875 L 125.070312 2.25 L 127.339844 2.25 L 127.339844 8.1875 L 130.238281 5.230469 L 132.808594 5.230469 L 129.910156 8.242188 L 132.945312 13.046875 Z M 130.265625 13.046875 "/>
</g>
</svg>
