<svg width="84" height="63" viewBox="0 0 84 63" fill="none" xmlns="http://www.w3.org/2000/svg">
<g id="rassylka">
<path id="Shape" d="M44 16.3075V46.2811C42.5187 46.1944 41.0374 46.0168 39.5942 45.8145C34.6749 45.1249 29.5093 44.2454 24.8616 45.9508C22.1452 46.9459 19.8404 48.7503 17.3913 50.2658C16.3217 50.9264 15.1842 51.5417 14 52V16.3075C14 14.4824 15.5238 13 17.3998 13H20.9949V14.2388C20.9949 15.1389 21.7462 15.8698 22.6715 15.8698H35.3285C36.2538 15.8698 37.0051 15.1389 37.0051 14.2388V13H40.6002C42.4762 13 44 14.4782 44 16.3075Z" fill="#E6492E"/>
<path id="Shape_2" d="M56.6518 37.7249C56.5267 38.1167 56.3933 38.5126 56.2474 38.9044C56.1014 39.3003 55.9472 39.6921 55.7804 40.0839C55.5719 40.5788 55.2801 41.0324 55.0466 41.482C54.8172 41.8573 54.5629 42.2161 54.2752 42.5543C53.9917 42.8924 53.6748 43.21 53.3204 43.5069C50.9021 45.569 47.7333 46.4351 44.6479 46.5341C44.1434 46.53 43.6389 46.5093 43.1344 46.4805V16.5432C43.1344 14.7203 41.6376 13.2397 39.7947 13.2397H36.2631V14.477C36.2631 15.3761 35.5252 16.106 34.6162 16.106H22.187C21.2781 16.106 20.5401 15.3761 20.5401 14.477V13.2397H17.0086C15.1615 13.2397 13.6688 14.7203 13.6688 16.5432V52.1965C13.1727 52.3904 12.6682 52.5595 12.1595 52.6914C12.1595 52.6914 12.1595 52.6914 12.1553 52.6914C11.1213 52.9554 10.0664 53.0667 8.99905 52.9595C6.16381 52.6749 4.29589 50.1427 3.58292 47.5033C0.497516 38.0878 -2.42111 22.9191 3.12428 14.6832C6.17632 10.1507 10.4208 6.439 15.2824 3.88202C15.8245 3.59745 16.3707 3.32938 16.9252 3.07368C21.2864 1.32504 25.9646 0.174399 30.7219 0.0176813C31.3182 -0.00293948 31.9144 -0.00706364 32.5273 0.0135572C35.7962 0.277503 39.1026 0.722912 42.1296 2.0014C57.8484 8.64955 58.2404 23.9584 58.8658 26.0617C59.6163 28.4538 56.9895 36.7021 56.6518 37.7249Z" fill="white"/>
<path id="Shape_3" d="M38.9417 12H17.0582C14.2664 12 12 14.2794 12 17.0966V53C12 53 12 53 12.0041 53C12.505 52.8676 13.0018 52.7021 13.4904 52.5036V16.7408C13.4904 14.9123 14.9643 13.4272 16.7791 13.4272H20.2566V14.6682C20.2566 15.5701 20.9833 16.3023 21.8784 16.3023H34.1216C35.0167 16.3023 35.7434 15.5701 35.7434 14.6682V13.4272H39.2209C41.0398 13.4272 42.5096 14.9123 42.5096 16.7408V46.77C43.0064 46.7989 43.5032 46.8196 44 46.8237V17.0924C43.9959 14.2794 41.7336 12 38.9417 12Z" fill="#3E3F43"/>
<path id="Shape_4" d="M25.3479 28H39.6521C40.3974 28 41 27.3688 41 26.588V24.412C41 23.6312 40.3974 23 39.6521 23H25.3479C24.6026 23 24 23.6312 24 24.412V26.588C24 27.3688 24.6026 28 25.3479 28Z" fill="white"/>
<path id="Shape_5" d="M17.3479 36H31.6521C32.3974 36 33 35.3688 33 34.588V32.412C33 31.6312 32.3974 31 31.6521 31H17.3479C16.6026 31 16 31.6312 16 32.412V34.588C16 35.3688 16.6026 36 17.3479 36Z" fill="white"/>
<g id="Group">
<path id="Shape_6" d="M64.8199 59.8327L64.1525 61.7394C63.8522 62.0993 64.0607 62.6411 64.5238 62.7155C65.7585 62.914 67.9152 62.8644 69.5087 60.6847C69.7256 60.3869 69.5838 59.9692 69.2334 59.8658L67.1435 58.9559L64.8199 59.8327Z" fill="#BCBCBC"/>
<path id="Shape_7" d="M77.2093 57.8309L77.1217 59.8865C76.9465 60.358 77.3553 60.8419 77.8559 60.7468C79.0656 60.5152 80.9511 59.7707 81.7479 57.3842C81.8897 56.9541 81.5518 56.5156 81.0971 56.5363L79.1115 56.2385L77.2093 57.8309Z" fill="#BCBCBC"/>
<path id="Shape_8" d="M66.2716 59.8658C66.0005 59.9775 64.9368 60.205 64.82 59.8369C62.5715 52.6319 63.4058 48.9095 66.693 42.2629C67.3229 40.9848 67.6941 41.3033 68.3157 41.5349C68.6035 41.5143 68.3157 41.5349 68.3157 41.5349C68.9414 41.7666 69.5212 42.1677 68.9497 43.3382C65.9671 49.4265 65.0452 52.3589 67.1477 58.9559C67.2937 59.4108 66.2716 59.8658 66.2716 59.8658Z" fill="#6B6C70"/>
<path id="Shape_9" d="M78.6234 57.6572C78.4274 57.8309 77.5472 58.1576 77.2093 57.8268C71.7905 52.5326 71.4526 48.3015 71.7947 40.9104C71.8614 39.4918 72.3287 39.6365 72.9919 39.5993C73.2506 39.4669 72.9919 39.5993 72.9919 39.5993C73.6552 39.5621 74.3518 39.7027 74.2976 41.0014C74.0139 47.7638 74.356 51.1802 79.1157 56.2385C79.5495 56.7018 78.8153 57.4835 78.6234 57.6572Z" fill="#6B6C70"/>
<path id="Shape_10" d="M48.5594 36.7619C48.5553 36.7495 48.5678 36.7288 48.5678 36.7164C48.647 36.0464 48.8765 35.5253 49.5272 35.4715C54.2744 35.062 57.3363 33.4697 59.8308 29.466C60.1729 28.9159 60.7653 28.9738 61.3951 29.1889C61.4035 29.193 61.4327 29.193 61.4369 29.2013C61.9166 29.8341 62.2545 29.8134 61.8206 30.6282C59.3261 35.2936 54.9836 37.5809 49.6816 37.7753C48.7513 37.8083 48.889 37.4816 48.5594 36.7619Z" fill="#6B6C70"/>
<path id="Shape_11" d="M58.8339 28.1549L71.1189 22.1039L75.6033 39.2394C75.6033 39.2394 71.2649 43.7064 65.3414 43.1273L58.8339 28.1549Z" fill="#BCBCBC"/>
<g id="Group 2" opacity="0.4">
<path id="Shape_12" d="M68.9319 29.2716C68.9319 29.2716 68.931 29.2696 68.9306 29.2686C68.9251 29.2581 68.9129 29.2528 68.9014 29.2559C68.8898 29.259 68.8819 29.2696 68.8824 29.2815C68.8667 29.8332 68.5413 30.3303 68.0406 30.5675C67.54 30.8047 66.949 30.7416 66.5119 30.4044C66.0747 30.0672 65.8656 29.5131 65.9709 28.971C65.9848 28.9016 66.0034 28.8332 66.0267 28.7664C66.0399 28.7288 66.0532 28.6967 66.0558 28.6902C66.0646 28.6689 66.0756 28.6437 66.089 28.616C66.1112 28.5699 66.1323 28.5322 66.1485 28.5049C66.175 28.4599 66.1989 28.4249 66.2142 28.4033C66.2368 28.37 66.2658 28.3341 66.3001 28.2935L66.3159 28.2747L66.3322 28.2572C66.3403 28.2482 66.341 28.2349 66.334 28.2252C66.3269 28.2155 66.314 28.212 66.303 28.2168L66.3012 28.2176L66.2921 28.2214C66.2921 28.2214 66.2133 28.2629 66.1452 28.3074C65.9932 28.4154 65.862 28.5498 65.7579 28.7041C65.6875 28.8078 65.6284 28.9187 65.5816 29.0348C65.5511 29.1113 65.5267 29.1915 65.5153 29.2301C65.4952 29.2987 65.4834 29.3503 65.4793 29.3691C65.4681 29.4183 65.4604 29.4618 65.4545 29.4978C65.4503 29.4705 65.4464 29.4417 65.4431 29.4116C65.4398 29.378 65.4377 29.3461 65.4362 29.3157C65.4358 29.3036 65.427 29.2934 65.415 29.2914C65.403 29.2894 65.3912 29.2961 65.3868 29.3074C65.3864 29.3086 65.386 29.3099 65.3857 29.3111C65.3765 29.3408 65.3703 29.3626 65.3684 29.3698C65.35 29.4332 65.3365 29.4978 65.3279 29.5632C65.3222 29.6096 65.3192 29.6564 65.3191 29.7031C65.3179 29.7715 65.321 29.8398 65.3285 29.9077C65.3402 30.0189 65.3629 30.1287 65.3963 30.2353C65.4288 30.3365 65.4704 30.4346 65.5206 30.5283C65.5714 30.6254 65.6294 30.7186 65.6943 30.807C65.6659 30.7866 65.6365 30.7643 65.6067 30.7394C65.5879 30.7237 65.5702 30.7094 65.5542 30.6942C65.5469 30.6873 65.5361 30.6854 65.5267 30.6893C65.5136 30.6949 65.5075 30.71 65.513 30.7231C65.5132 30.7238 65.5136 30.7246 65.514 30.7253C65.5181 30.7351 65.5243 30.7445 65.5295 30.7541C65.594 30.8721 65.6712 30.9826 65.7597 31.0838C65.8059 31.1367 65.8551 31.1868 65.9071 31.234C65.9569 31.279 66.0089 31.3213 66.0631 31.3608C66.7161 31.8362 67.6039 31.8353 68.259 31.3585C68.9142 30.8817 69.1863 30.0384 68.9321 29.2727C68.9322 29.2723 68.9321 29.2719 68.9319 29.2716Z" fill="#E6492E"/>
<path id="Shape_13" d="M68.94 29.2765C68.9394 29.2751 68.9388 29.2736 68.9382 29.2722C68.9305 29.2569 68.9131 29.2492 68.8965 29.2536C68.8799 29.258 68.8687 29.2734 68.8696 29.2905C68.8394 30.0398 68.4089 30.7168 67.7414 31.0645C67.074 31.4122 66.2719 31.3773 65.6398 30.973C65.0076 30.5687 64.6423 29.857 64.6823 29.1081C64.6883 29.0205 64.6997 28.9333 64.7164 28.847C64.7361 28.7481 64.7627 28.6506 64.7958 28.5552C64.8145 28.5015 64.8335 28.4558 64.8373 28.4465C64.8503 28.4169 64.8656 28.3801 64.8845 28.3406C64.9162 28.2747 64.9464 28.2208 64.9693 28.182C65.0072 28.1178 65.0415 28.0677 65.0631 28.0372C65.096 27.9907 65.1366 27.9374 65.1858 27.8805L65.2097 27.8531L65.2312 27.8288C65.2423 27.8159 65.2432 27.7972 65.2332 27.7835C65.2232 27.7698 65.2051 27.7647 65.1894 27.7713L65.187 27.7723L65.1743 27.7777C65.1743 27.7777 65.0616 27.837 64.9649 27.9009C64.7482 28.055 64.5611 28.2468 64.4127 28.4671C64.3123 28.6152 64.2282 28.7737 64.1618 28.9397C64.1184 29.0489 64.0833 29.1631 64.0672 29.2185C64.0386 29.316 64.0216 29.3898 64.0156 29.4166C64.0001 29.4869 63.9885 29.5483 63.9804 29.5998C63.9743 29.5608 63.9687 29.5199 63.9642 29.4769C63.9594 29.4292 63.9564 29.384 63.9544 29.3399C63.9534 29.323 63.9408 29.309 63.9239 29.3062C63.9071 29.3034 63.8906 29.3125 63.884 29.3282C63.8833 29.3298 63.8828 29.3315 63.8825 29.3332C63.8692 29.3754 63.8605 29.4065 63.8575 29.4159C63.8313 29.5063 63.8119 29.5985 63.7995 29.6917C63.7916 29.7579 63.7876 29.8246 63.7876 29.8912C63.7861 29.9887 63.7906 30.0862 63.8012 30.1831C63.8181 30.3419 63.8508 30.4985 63.8986 30.6508C63.945 30.7952 64.0043 30.9351 64.076 31.0688C64.1474 31.2072 64.2292 31.34 64.3207 31.4661C64.2803 31.4374 64.238 31.405 64.1957 31.3701C64.1693 31.3484 64.1445 31.3269 64.1202 31.306C64.1076 31.2942 64.0884 31.2928 64.0742 31.3027C64.06 31.3126 64.0546 31.331 64.0613 31.3469C64.0616 31.348 64.0621 31.3491 64.0627 31.3502C64.0699 31.3637 64.0771 31.3774 64.0848 31.3915C64.7424 32.5933 66.2127 33.0932 67.4742 32.544C68.7356 31.9949 69.3712 30.578 68.9394 29.2779C68.9397 29.2775 68.9399 29.277 68.94 29.2765Z" fill="#3E3F43"/>
</g>
<path id="Shape_14" d="M60.6026 24.9701L58.8339 28.1549C58.8339 28.1549 66.28 27.1498 71.1189 22.1039L67.4563 21.6572L60.6026 24.9701Z" fill="#6B6C70"/>
<path id="Shape_15" d="M68.495 40.2776L82.9201 36.0175C83.671 35.7941 84.0964 35.0124 83.8754 34.2679L83.2496 32.1875C83.0244 31.443 82.236 31.0211 81.4851 31.2404L67.06 35.5005C66.3092 35.7238 65.8837 36.5055 66.1048 37.25L66.7305 39.3304C66.9558 40.079 67.7442 40.5009 68.495 40.2776Z" fill="white"/>
<path id="Shape_16" d="M71.5694 40.9766L82.9284 31.1866C83.5208 30.6779 83.5834 29.7886 83.0703 29.2013L81.6353 27.5635C81.1222 26.9761 80.2253 26.9141 79.6329 27.4228L68.274 37.2128C67.6816 37.7215 67.619 38.6108 68.1321 39.1981L69.5713 40.8401C70.0844 41.4233 70.9813 41.4853 71.5694 40.9766Z" fill="white"/>
<path id="Rectangle-path" d="M59.3638 21.6183L64.1104 19.3036L65.5335 22.2218L60.7868 24.5365L59.3638 21.6183Z" fill="white"/>
<path id="Shape_17" d="M73.1004 37.9366C72.5456 37.3865 73.1337 36.4394 74.1391 35.6039C80.1085 30.6365 78.5025 28.2997 71.5861 27.489C70.3263 27.3401 69.8883 26.7073 70.0552 26.0373C70.1887 25.5037 70.3472 24.9205 71.949 25.1646C80.705 26.5005 82.7616 31.5423 75.7243 37.4279C74.4394 38.5032 73.6343 38.4619 73.1004 37.9366Z" fill="#6B6C70"/>
<path id="Shape_18" d="M67.4563 21.6365C67.4563 21.6365 66.8723 22.5423 64.2276 23.8741C61.7372 25.1273 60.6026 24.9495 60.6026 24.9495L60.2146 24.1636L63.8188 22.3893C64.3235 22.0625 64.1233 21.4545 64.0399 20.8631C64.0399 20.8631 63.9439 20.1807 63.3724 20.5115L59.1092 22.592L56.9692 17.5667C56.0473 15.6889 56.8315 13.4265 58.7254 12.5125C59.2635 12.2519 59.8308 12.1278 60.394 12.1278C61.8081 12.1278 63.1639 12.9095 63.823 14.2537L67.4563 21.6365Z" fill="#BCBCBC"/>
<path id="Shape_19" d="M57.2779 18.3318C57.2779 18.3318 56.6522 19.4486 56.7773 20.1103C56.8607 20.5529 57.4573 21.6283 57.6617 21.9881C57.7201 22.0915 57.8077 22.1742 57.9203 22.2197C57.9245 22.2197 57.9286 22.2238 57.9328 22.2238C58.0371 22.2611 58.1497 22.2528 58.2498 22.2073L63.4726 19.7009C63.4726 19.7009 64.3903 19.1839 64.2026 18.5428C63.9648 17.7321 63.2848 16.3507 63.2848 16.3507C63.2848 16.3507 62.7843 15.9784 62.3671 16.3507C61.95 16.7229 62.0334 17.0124 61.4494 17.3433C60.8654 17.6742 57.7785 19.1839 57.7785 19.1839L57.2779 18.3318Z" fill="#D7D2FA"/>
<path id="Shape_20" d="M57.2779 18.3318C57.2779 18.3318 56.6522 19.4486 56.7773 20.1103C56.8607 20.5529 57.4573 21.6283 57.6617 21.9881C57.7201 22.0915 57.8077 22.1742 57.9203 22.2197C57.9245 22.2197 57.9286 22.2238 57.9328 22.2238C58.0371 22.2611 58.1497 22.2528 58.2498 22.2073L63.4726 19.7009C63.4726 19.7009 64.3903 19.1839 64.2026 18.5428C63.9648 17.7321 63.2848 16.3507 63.2848 16.3507C63.2848 16.3507 62.7843 15.9784 62.3671 16.3507C61.95 16.7229 62.0334 17.0124 61.4494 17.3433C60.8654 17.6742 57.7785 19.1839 57.7785 19.1839L57.2779 18.3318Z" fill="#6B6C70"/>
<path id="Shape_21" d="M62.267 19.949L58.4876 21.7771C58.2665 21.8847 57.9996 21.7937 57.8911 21.5745L57.4114 20.5984C57.3029 20.3792 57.3947 20.1145 57.6158 20.0069L61.3952 18.1788C61.6162 18.0713 61.8832 18.1623 61.9917 18.3815L62.4714 19.3576C62.5799 19.5809 62.4881 19.8415 62.267 19.949Z" fill="#3E3F43"/>
<path id="Shape_22" d="M62.267 19.949L61.8832 20.1351L61.0072 20.5612L59.6181 21.2353L58.7421 21.6572L58.4876 21.7771C58.2665 21.8847 57.9996 21.7937 57.8911 21.5745L57.4114 20.5984C57.3029 20.3792 57.3947 20.1145 57.6158 20.0069L57.8661 19.887L58.7421 19.461L60.1312 18.7909L61.0072 18.3649L61.391 18.1788C61.6121 18.0713 61.879 18.1623 61.9875 18.3815L62.4672 19.3576C62.5799 19.5809 62.4881 19.8415 62.267 19.949Z" fill="#3E3F43"/>
<path id="Shape_23" d="M71.5152 38.0565L70.0969 38.4743C69.855 38.5446 69.6005 38.4081 69.5254 38.1682C69.4545 37.9283 69.5922 37.676 69.8341 37.6016L71.2524 37.1838C71.4944 37.1135 71.7488 37.25 71.8239 37.4899C71.899 37.7339 71.7613 37.9862 71.5152 38.0565Z" fill="#BCBCBC"/>
<path id="Shape_24" d="M44.1794 36.1209L44.9177 35.4839C45.1096 35.3185 45.3975 35.3392 45.5643 35.5294C45.7312 35.7197 45.7103 36.0051 45.5184 36.1705L44.7801 36.8075C44.5882 36.9729 44.3003 36.9522 44.1335 36.762C43.9708 36.5717 43.9875 36.2863 44.1794 36.1209Z" fill="#BCBCBC"/>
<path id="Shape_25" d="M45.314 35.3847L47.1036 35.7114C47.3539 35.7569 47.5166 35.9927 47.4707 36.2408C47.4248 36.489 47.187 36.6503 46.9367 36.6048L45.1472 36.2781C44.8969 36.2326 44.7342 35.9968 44.7801 35.7486C44.826 35.5046 45.0637 35.3392 45.314 35.3847Z" fill="#BCBCBC"/>
<path id="Shape_26" d="M72.1409 38.9044L71.1648 40.0046C70.9979 40.1948 71.0146 40.4802 71.2065 40.6457C71.3984 40.8111 71.6862 40.7946 71.8531 40.6043L72.8292 39.5041C72.9961 39.3139 72.9794 39.0285 72.7875 38.863C72.5956 38.6976 72.3078 38.7141 72.1409 38.9044Z" fill="#BCBCBC"/>
<path id="Shape_27" d="M44.7801 39.0782L45.7061 39.3925C45.9439 39.4752 46.2067 39.347 46.2902 39.1112C46.3736 38.8755 46.2443 38.6149 46.0065 38.5322L45.0804 38.2179C44.8426 38.1351 44.5798 38.2634 44.4964 38.4991C44.413 38.739 44.5423 38.9954 44.7801 39.0782Z" fill="#BCBCBC"/>
<path id="Shape_28" d="M44.9886 37.9573L46.7073 37.7463C46.9576 37.7174 47.137 37.4899 47.1078 37.2376C47.0786 36.9894 46.8491 36.8116 46.5947 36.8406L44.876 37.0515C44.6257 37.0804 44.4463 37.3079 44.4755 37.5602C44.5089 37.8125 44.7384 37.9904 44.9886 37.9573Z" fill="#BCBCBC"/>
<path id="Shape_29" d="M46.1191 39.3594L47.3372 38.6645C47.5583 38.5404 47.6334 38.2592 47.5041 38.0441C47.3789 37.8249 47.0953 37.7504 46.8783 37.8787L45.6603 38.5735C45.4392 38.6976 45.3641 38.9788 45.4934 39.1939C45.6185 39.409 45.9022 39.4834 46.1191 39.3594Z" fill="#BCBCBC"/>
<g id="Group_2">
<path id="Shape_30" d="M58.3625 12.2973L57.8285 12.6199L55.5008 8.34329L55.6301 8.26471L58.3625 12.2973Z" fill="#BCBCBC"/>
<path id="Oval" d="M55.7761 9.11675C56.0802 9.11675 56.3268 8.87232 56.3268 8.5708C56.3268 8.26927 56.0802 8.02484 55.7761 8.02484C55.472 8.02484 55.2255 8.26927 55.2255 8.5708C55.2255 8.87232 55.472 9.11675 55.7761 9.11675Z" fill="#FF4828"/>
<path id="Shape_31" d="M59.105 12.5331C59.13 12.7647 58.1164 13.5009 57.6992 13.3727L57.8243 12.6158L58.3583 12.2932L59.105 12.5331Z" fill="#6B6C70"/>
</g>
<path id="Shape_32" d="M71.5236 38.1724L70.2471 38.9086C70.026 39.0368 69.9551 39.3139 70.0802 39.529C70.2095 39.7482 70.489 39.8185 70.7059 39.6944L71.9824 38.9582C72.2035 38.83 72.2744 38.5529 72.1493 38.3378C72.0241 38.1186 71.7446 38.0441 71.5236 38.1724Z" fill="#BCBCBC"/>
<path id="Shape_33" d="M49.4647 35.4798C49.4647 35.4798 49.6774 35.8603 49.7734 36.613C49.8568 37.2872 49.6816 37.7753 49.6816 37.7753C49.6816 37.7753 48.5886 38.5487 47.4165 38.6811C47.1745 38.71 46.9534 38.5528 46.8992 38.3171L46.3611 35.8313C46.311 35.5914 46.4695 35.3598 46.7115 35.3185C47.162 35.244 48.013 35.2068 49.4647 35.4798Z" fill="#3E3F43"/>
<path id="Shape_34" d="M73.6677 36.034C73.6677 36.034 74.0431 36.3401 74.4019 37.0101C74.7231 37.6098 74.7648 38.0772 74.7648 38.0772C74.7648 38.0772 73.9973 39.2394 72.9502 39.7812C72.7333 39.8929 72.4705 39.8267 72.337 39.6241L70.9354 37.494C70.8019 37.2913 70.8645 37.0142 71.0772 36.8902C71.4735 36.6585 72.216 36.2946 73.6677 36.034Z" fill="#3E3F43"/>
<path id="Shape_35" d="M59.8475 20.557C59.8475 20.8093 59.7599 21.045 59.6139 21.2312L58.7379 21.653C58.1289 21.653 57.6366 21.1608 57.6366 20.557C57.6366 20.3047 57.7242 20.0689 57.8702 19.8869L58.7463 19.4609C59.3553 19.4651 59.8475 19.9573 59.8475 20.557Z" fill="white"/>
<path id="Shape_36" d="M62.1168 19.4609C62.1168 19.7132 62.0292 19.949 61.8832 20.1351L61.0072 20.5611C60.3982 20.557 59.9059 20.0689 59.9059 19.4651C59.9059 19.2128 59.9935 18.977 60.1395 18.795L61.0155 18.369C61.6246 18.369 62.1168 18.8571 62.1168 19.4609Z" fill="white"/>
<path id="Oval_2" d="M58.4084 21.0327C58.6434 21.0327 58.8339 20.8438 58.8339 20.6108C58.8339 20.3778 58.6434 20.1889 58.4084 20.1889C58.1734 20.1889 57.9829 20.3778 57.9829 20.6108C57.9829 20.8438 58.1734 21.0327 58.4084 21.0327Z" fill="#3E3F43"/>
<path id="Oval_3" d="M60.6401 19.9283C60.8751 19.9283 61.0656 19.7395 61.0656 19.5065C61.0656 19.2735 60.8751 19.0846 60.6401 19.0846C60.4051 19.0846 60.2146 19.2735 60.2146 19.5065C60.2146 19.7395 60.4051 19.9283 60.6401 19.9283Z" fill="#3E3F43"/>
</g>
<path id="Shape_37" d="M30.3272 44.9367L44.0366 40.2824C44.7502 40.0384 45.1546 39.1844 44.9445 38.371L44.3498 36.0981C44.1357 35.2847 43.3864 34.8238 42.6728 35.0633L28.9634 39.7176C28.2498 39.9616 27.8454 40.8156 28.0555 41.629L28.6502 43.9019C28.8643 44.7153 29.6136 45.1762 30.3272 44.9367Z" fill="white"/>
</g>
</svg>
