<svg width="10" height="20" viewBox="0 0 10 20" fill="none" xmlns="http://www.w3.org/2000/svg">
<path fill-rule="evenodd" clip-rule="evenodd" d="M0.613361 20C0.457019 20 0.299655 19.9385 0.1801 19.8167C-0.0600332 19.5729 -0.0600332 19.1771 0.1801 18.9333L8.65423 10.2949C8.81262 10.1324 8.81262 9.86784 8.65423 9.70534L0.1801 1.06691C-0.0600332 0.823166 -0.0600332 0.427338 0.1801 0.183591C0.419211 -0.0611971 0.807511 -0.0611971 1.04662 0.183591L9.52076 8.82202C9.83037 9.1366 10 9.55534 10 10.0001C10 10.4449 9.83037 10.8637 9.52076 11.1782L1.04662 19.8167C0.927066 19.9385 0.769702 20 0.613361 20Z" fill="#878C96"/>
</svg>
