<svg width="27" height="22" viewBox="0 0 27 22" fill="none" xmlns="http://www.w3.org/2000/svg">
<path fill-rule="evenodd" clip-rule="evenodd" d="M2 4C0.89543 4 0 3.10457 0 2C0 0.89543 0.89543 0 2 0C3.10457 0 4 0.89543 4 2C4 3.10457 3.10457 4 2 4ZM2 10C0.89543 10 0 9.10457 0 8C0 6.89543 0.89543 6 2 6C3.10457 6 4 6.89543 4 8C4 9.10457 3.10457 10 2 10ZM2 16C0.89543 16 0 15.1046 0 14C0 12.8954 0.89543 12 2 12C3.10457 12 4 12.8954 4 14C4 15.1046 3.10457 16 2 16ZM2 22C0.89543 22 0 21.1046 0 20C0 18.8954 0.89543 18 2 18C3.10457 18 4 18.8954 4 20C4 21.1046 3.10457 22 2 22ZM7.78892 19H26.2111C26.6476 19 27 19.4487 27 20.0008C27 20.553 26.6476 21 26.2111 21H7.78892C7.35238 21 7 20.553 7 20.0008C7 19.4487 7.35238 19 7.78892 19ZM7.78892 13H26.2111C26.6476 13 27 13.4487 27 14.0008C27 14.553 26.6476 15 26.2111 15H7.78892C7.35238 15 7 14.553 7 14.0008C7 13.4487 7.35238 13 7.78892 13ZM7.78892 7H26.2111C26.6476 7 27 7.44871 27 8.00083C27 8.55296 26.6476 9 26.2111 9H7.78892C7.35238 9 7 8.55296 7 8.00083C7 7.44871 7.35238 7 7.78892 7ZM7.78892 1H26.2111C26.6476 1 27 1.44871 27 2.00083C27 2.55296 26.6476 3 26.2111 3H7.78892C7.35238 3 7 2.55296 7 2.00083C7 1.44871 7.35238 1 7.78892 1Z" fill="#878C96"/>
</svg>
