<svg width="32" height="32" viewBox="0 0 32 32" fill="none" xmlns="http://www.w3.org/2000/svg">
<path fill-rule="evenodd" clip-rule="evenodd" d="M16 0C24.836 0 32 7.164 32 16C32 24.837 24.836 32 16 32C7.163 32 0 24.837 0 16C0 7.164 7.163 0 16 0ZM10.6354 17.433L19.8894 11.7335C20.0558 11.6313 20.2269 11.8562 20.084 11.9887L12.4468 19.0879C12.1783 19.3378 12.0052 19.6722 11.9561 20.0352L11.696 21.9631C11.6615 22.2205 11.2999 22.2461 11.2289 21.997L10.2283 18.4813C10.1137 18.0803 10.2807 17.652 10.6354 17.433ZM4.36298 16.6065L9.09802 18.3738L10.9308 24.2679C11.048 24.6454 11.5097 24.7849 11.816 24.5344L14.4554 22.3827C14.7321 22.1573 15.1262 22.1461 15.4153 22.356L20.1758 25.8122C20.5036 26.0504 20.968 25.8708 21.0502 25.4748L24.5375 8.70006C24.6272 8.26742 24.2021 7.9065 23.7902 8.06583L4.35743 15.5624C3.87787 15.7473 3.88205 16.4263 4.36298 16.6065Z" fill="white"/>
</svg>
