<svg width="30" height="33" viewBox="0 0 30 33" fill="none" xmlns="http://www.w3.org/2000/svg">
<path fill-rule="evenodd" clip-rule="evenodd" d="M17.9689 25.8396V11.8302C17.9689 11.3134 18.3892 10.8962 18.9064 10.8962C19.4251 10.8962 19.8439 11.3134 19.8439 11.8302V25.8396C19.8439 26.3564 19.4251 26.7736 18.9064 26.7736C18.3892 26.7736 17.9689 26.3564 17.9689 25.8396ZM10.1561 25.8396V11.8302C10.1561 11.3134 10.5764 10.8962 11.0936 10.8962C11.6124 10.8962 12.0311 11.3134 12.0311 11.8302V25.8396C12.0311 26.3564 11.6124 26.7736 11.0936 26.7736C10.5764 26.7736 10.1561 26.3564 10.1561 25.8396ZM25.0002 27.3962C25.0002 29.4556 23.3174 31.1321 21.2502 31.1321H8.75024C6.68306 31.1321 5.00024 29.4556 5.00024 27.3962V6.53773H25.0002V27.3962ZM12.0311 2.49057C12.0311 2.14656 12.3108 1.86793 12.6561 1.86793H17.3436C17.6889 1.86793 17.9686 2.14656 17.9686 2.49057V4.66981H12.0311V2.49057ZM29.0625 4.66981H19.8437V2.49057C19.8437 1.11764 18.7219 0 17.3438 0H12.6562C11.2781 0 10.1562 1.11764 10.1562 2.49057V4.66981H0.9375C0.420313 4.66981 0 5.08698 0 5.60377C0 6.12057 0.420313 6.53774 0.9375 6.53774H3.125V27.3962C3.125 30.4861 5.64844 33 8.75 33H21.25C24.3516 33 26.875 30.4861 26.875 27.3962V6.53774H29.0625C29.5812 6.53774 30 6.12057 30 5.60377C30 5.08698 29.5812 4.66981 29.0625 4.66981Z" fill="#878C96"/>
</svg>
